<svg width="420" height="340" viewBox="0 0 420 340" fill="none" xmlns="http://www.w3.org/2000/svg">
<path d="M98.195 296H61.6183L110.387 101.6H153.06L205.893 296H171.348L134.772 144.573L98.195 296Z" fill="white" stroke="#7B818E" stroke-width="2"/>
<path d="M257.507 296H220.321L269.902 101.6H313.286L367 296H331.88L294.693 144.573L257.507 296Z" fill="white" stroke="#7B818E" stroke-width="2"/>
<path d="M241.962 284L287.649 101.6" stroke="#7B818E" stroke-width="2"/>
<path d="M80.855 284L126.542 101.6" stroke="#7B818E" stroke-width="2"/>
<ellipse cx="292.458" cy="72.8" rx="28.855" ry="28.8" fill="white" stroke="#7B818E" stroke-width="2"/>
<ellipse cx="131.351" cy="72.8" rx="28.855" ry="28.8" fill="white" stroke="#7B818E" stroke-width="2"/>
<ellipse cx="292.458" cy="72.7998" rx="12.0229" ry="12" fill="#FF6745"/>
<ellipse cx="131.351" cy="72.7998" rx="12.0229" ry="12" fill="#FF8845"/>
<path d="M84.5326 128H342.954L322.445 221.6H64.0229L84.5326 128Z" fill="#FFA63E"/>
<path d="M72.5097 128H330.931L310.422 221.6H52L72.5097 128Z" fill="#FFC700"/>
<path fill-rule="evenodd" clip-rule="evenodd" d="M249.341 128H204.501C209.798 150.636 227.311 199.393 245.895 221.6H310.422L311.881 214.939C285.51 192.032 270.202 167.897 249.341 128ZM326.242 149.402L319.933 178.194C304.467 162.332 294.568 149.599 282.966 128H310.249C316.071 137.955 320.743 143.594 326.242 149.402ZM203.544 221.6C186.866 198.327 174.129 169.667 167.167 128H114.703C116.329 148.269 127.951 162.215 140.713 177.53C151.064 189.951 162.165 203.273 169.293 221.6H203.544ZM126.939 221.6C113.618 190.748 98.596 176.119 65.4438 160.247L52 221.6H126.939Z" fill="#06192F"/>
</svg>
