<svg width="420" height="340" viewBox="0 0 420 340" fill="none" xmlns="http://www.w3.org/2000/svg">
<path d="M145.447 84.1233C130.69 92.6039 80.3333 202.109 70.3264 239.455L90.2201 262.091L143.28 231.608L234.977 256.178C267.133 264.795 283.212 269.103 296.456 263.307C299.197 262.107 301.798 260.612 304.213 258.849C315.879 250.331 320.169 234.317 328.751 202.291C337.332 170.264 341.623 154.251 335.779 141.042C334.57 138.307 320.457 113.1 318.683 110.69C310.111 99.0481 304.952 114.428 272.795 105.811L216.451 90.7139C178.954 80.6665 160.205 75.6427 145.447 84.1233Z" fill="#0469DE"/>
<path d="M326.834 124.663C239.843 193.048 188.097 213.667 94.0559 206.257L91.5836 215.484C166.387 244.484 255.037 241.884 334.127 137.845C332.391 134.614 329.589 129.555 326.834 124.663Z" fill="#0456B8"/>
<path d="M337.962 162.479C300.964 217.792 256.988 242.907 212.279 250.098L234.977 256.179C249.262 260.007 260.374 262.985 269.475 264.604C293.833 250.351 312.238 230.245 325.926 212.779C326.823 209.489 327.758 205.997 328.751 202.292C333.363 185.079 336.736 172.492 337.962 162.479Z" fill="#0456B8"/>
<path d="M101.32 255.715L122.094 243.781C105.726 239.385 89.8719 233.589 74.8793 227.078C74.8793 227.078 74.6491 227.016 74.2386 226.912C72.7912 231.124 71.5827 234.935 70.6599 238.238C79.6048 243.915 89.8911 249.95 101.32 255.715Z" fill="#0456B8"/>
<path d="M131.32 63.0323C116.563 71.5129 111.559 90.1859 101.552 127.532L71.4798 239.764L127.464 207.593L219.161 232.163C251.318 240.779 267.396 245.087 280.64 239.291C283.382 238.091 285.983 236.596 288.398 234.833C300.063 226.315 304.354 210.302 312.935 178.275C321.517 146.249 325.807 130.235 319.964 117.026C318.754 114.292 317.249 111.696 315.475 109.287C306.903 97.6447 290.825 93.3365 258.668 84.7202L202.324 69.6229C164.827 59.5755 146.078 54.5518 131.32 63.0323Z" fill="#FAFCFE" stroke="#0469DE" stroke-width="4.77612" stroke-linejoin="bevel"/>
<ellipse cx="184.669" cy="120.706" rx="11.9403" ry="19.1045" transform="rotate(21.5445 184.669 120.706)" fill="#06192F"/>
<ellipse cx="244.212" cy="136.518" rx="11.9403" ry="19.1045" transform="rotate(21.5445 244.212 136.518)" fill="#06192F"/>
<path d="M187.56 157.143C180.869 168.536 173.306 187.936 191.635 192.847C209.964 197.758 220.752 179.222 224.472 167.034" stroke="#06192F" stroke-width="4.77612"/>
</svg>
