<?xml version="1.0" encoding="UTF-8"?>
<svg xmlns="http://www.w3.org/2000/svg" xmlns:xlink="http://www.w3.org/1999/xlink" version="1.1" id="Capa_1" x="0px" y="0px" viewBox="0 0 512 512" style="enable-background:new 0 0 512 512;" xml:space="preserve" width="512" height="512">
<g>
	<g>
		<g>
			
				<line style="fill:none;stroke:#000000;stroke-width:15;stroke-linecap:round;stroke-linejoin:round;stroke-miterlimit:10;" x1="256" y1="96.889" x2="256" y2="7.5"/>
			
				<polyline style="fill:none;stroke:#000000;stroke-width:15;stroke-linecap:round;stroke-linejoin:round;stroke-miterlimit:10;" points="&#10;&#9;&#9;&#9;&#9;291.077,42.577 256,7.5 220.923,42.577 &#9;&#9;&#9;"/>
		</g>
		<g>
			<g>
				<g>
					<path style="fill:none;stroke:#000000;stroke-width:15;stroke-linecap:round;stroke-linejoin:round;" d="M337.871,448.793&#10;&#9;&#9;&#9;&#9;&#9;&#9;c2.315-0.954,4.609-1.948,6.883-2.979"/>
					
						<path style="fill:none;stroke:#000000;stroke-width:15;stroke-linecap:round;stroke-linejoin:round;stroke-dasharray:14.0434,28.0868;" d="&#10;&#9;&#9;&#9;&#9;&#9;&#9;M369.498,432.564c55.196-34.376,93.673-93.074,100.428-161.109"/>
					<path style="fill:none;stroke:#000000;stroke-width:15;stroke-linecap:round;stroke-linejoin:round;" d="M470.859,257.461&#10;&#9;&#9;&#9;&#9;&#9;&#9;c0.085-2.49,0.128-4.99,0.128-7.5"/>
				</g>
			</g>
			<g>
				<g>
					<path style="fill:none;stroke:#000000;stroke-width:15;stroke-linecap:round;stroke-linejoin:round;" d="M41.013,249.96&#10;&#9;&#9;&#9;&#9;&#9;&#9;c0,2.51,0.043,5.011,0.128,7.5"/>
					
						<path style="fill:none;stroke:#000000;stroke-width:15;stroke-linecap:round;stroke-linejoin:round;stroke-dasharray:14.0434,28.0868;" d="&#10;&#9;&#9;&#9;&#9;&#9;&#9;M43.919,285.393c11.093,66.879,53.059,123.323,110.761,154.213"/>
					<path style="fill:none;stroke:#000000;stroke-width:15;stroke-linecap:round;stroke-linejoin:round;" d="M167.246,445.814&#10;&#9;&#9;&#9;&#9;&#9;&#9;c2.273,1.032,4.568,2.025,6.883,2.979"/>
				</g>
			</g>
		</g>
		<g>
			<g>
				<g>
					<path style="fill:none;stroke:#000000;stroke-width:15;stroke-linecap:round;stroke-linejoin:round;" d="M312.13,217.355&#10;&#9;&#9;&#9;&#9;&#9;&#9;c1.21-2.177,2.297-4.432,3.253-6.754"/>
					
						<path style="fill:none;stroke:#000000;stroke-width:15;stroke-linecap:round;stroke-linejoin:round;stroke-dasharray:14.237,23.7283;" d="&#10;&#9;&#9;&#9;&#9;&#9;&#9;M320.168,187.498c0.028-1.444,0.008-2.899-0.061-4.365c-1.551-32.837-28.183-59.46-61.021-60.998&#10;&#9;&#9;&#9;&#9;&#9;&#9;c-36.849-1.726-67.266,27.639-67.266,64.108c0,4.464,0.458,8.82,1.329,13.025"/>
					<path style="fill:none;stroke:#000000;stroke-width:15;stroke-linecap:round;stroke-linejoin:round;" d="M196.621,210.6&#10;&#9;&#9;&#9;&#9;&#9;&#9;c0.955,2.321,2.042,4.574,3.252,6.75"/>
				</g>
			</g>
			<g>
				<g>
					
						<line style="fill:none;stroke:#000000;stroke-width:15;stroke-linecap:round;stroke-linejoin:round;" x1="424.717" y1="182.701" x2="430.02" y2="177.398"/>
					
						<path style="fill:none;stroke:#000000;stroke-width:15;stroke-linecap:round;stroke-linejoin:round;stroke-dasharray:14.346,23.91;" d="&#10;&#9;&#9;&#9;&#9;&#9;&#9;M446.927,160.491l20.94-20.94c2.409-2.409,2.409-6.314,0-8.723c-16.587-16.587-43.479-16.587-60.066,0l-78.909,78.909"/>
					
						<line style="fill:none;stroke:#000000;stroke-width:15;stroke-linecap:round;stroke-linejoin:round;" x1="320.44" y1="218.191" x2="315.136" y2="223.494"/>
				</g>
			</g>
			<g>
				<g>
					
						<line style="fill:none;stroke:#000000;stroke-width:15;stroke-linecap:round;stroke-linejoin:round;" x1="196.864" y1="223.494" x2="191.56" y2="218.191"/>
					
						<path style="fill:none;stroke:#000000;stroke-width:15;stroke-linecap:round;stroke-linejoin:round;stroke-dasharray:14.346,23.91;" d="&#10;&#9;&#9;&#9;&#9;&#9;&#9;M174.654,201.284l-70.455-70.456c-16.587-16.587-43.479-16.587-60.066,0c-2.409,2.409-2.409,6.314,0,8.723l29.394,29.394"/>
					
						<line style="fill:none;stroke:#000000;stroke-width:15;stroke-linecap:round;stroke-linejoin:round;" x1="81.98" y1="177.398" x2="87.283" y2="182.701"/>
				</g>
			</g>
		</g>
		<path style="fill:none;stroke:#000000;stroke-width:15;stroke-linecap:round;stroke-linejoin:round;stroke-miterlimit:10;" d="&#10;&#9;&#9;&#9;M126.194,215.057l-21.996-21.996c-16.587-16.587-43.479-16.587-60.065,0c-2.409,2.408-2.409,6.314,0,8.723l86.097,86.096&#10;&#9;&#9;&#9;c28.109,28.109,43.9,66.232,43.9,105.984V489.5c0,8.284,6.716,15,15,15h133.742c8.284,0,15-6.716,15-15V428"/>
		<path style="fill:none;stroke:#000000;stroke-width:15;stroke-linecap:round;stroke-linejoin:round;stroke-miterlimit:10;" d="&#10;&#9;&#9;&#9;M337.882,393c0.228-39.439,15.985-77.215,43.889-105.119l86.097-86.096c2.409-2.409,2.409-6.314,0-8.723&#10;&#9;&#9;&#9;c-16.587-16.587-43.479-16.587-60.065,0L305.926,294.938c-3.891,3.891-8.963,6.326-14.372,6.97&#10;&#9;&#9;&#9;c-10.179,6.787-22.402,10.749-35.554,10.749s-25.375-3.963-35.554-10.749c-5.41-0.644-10.481-3.079-14.372-6.97l-55.131-55.132"/>
		<g>
			
				<line style="fill:none;stroke:#000000;stroke-width:15;stroke-linecap:round;stroke-linejoin:round;stroke-miterlimit:10;" x1="256" y1="504.5" x2="256" y2="352.611"/>
			
				<polyline style="fill:none;stroke:#000000;stroke-width:15;stroke-linecap:round;stroke-linejoin:round;stroke-miterlimit:10;" points="&#10;&#9;&#9;&#9;&#9;291.077,387.688 256,352.611 220.923,387.688 &#9;&#9;&#9;"/>
		</g>
		<g>
			<g>
				
					<line style="fill:none;stroke:#000000;stroke-width:15;stroke-linecap:round;stroke-linejoin:round;stroke-miterlimit:10;" x1="166.045" y1="139.887" x2="166.045" y2="50.497"/>
				
					<polyline style="fill:none;stroke:#000000;stroke-width:15;stroke-linecap:round;stroke-linejoin:round;stroke-miterlimit:10;" points="&#10;&#9;&#9;&#9;&#9;&#9;201.122,85.574 166.045,50.497 130.968,85.574 &#9;&#9;&#9;&#9;"/>
			</g>
			<g>
				
					<line style="fill:none;stroke:#000000;stroke-width:15;stroke-linecap:round;stroke-linejoin:round;stroke-miterlimit:10;" x1="345.955" y1="139.887" x2="345.955" y2="50.497"/>
				
					<polyline style="fill:none;stroke:#000000;stroke-width:15;stroke-linecap:round;stroke-linejoin:round;stroke-miterlimit:10;" points="&#10;&#9;&#9;&#9;&#9;&#9;381.032,85.574 345.955,50.497 310.878,85.574 &#9;&#9;&#9;&#9;"/>
			</g>
		</g>
		<path style="fill:none;stroke:#000000;stroke-width:15;stroke-linecap:round;stroke-linejoin:round;stroke-miterlimit:10;" d="&#10;&#9;&#9;&#9;M317.751,231c-7.613-26.948-32.367-46.704-61.751-46.704c-35.446,0-64.18,28.734-64.18,64.18s28.734,64.18,64.18,64.18&#10;&#9;&#9;&#9;c29.368,0,54.11-19.732,61.738-46.657"/>
		<g>
			<path style="fill:none;stroke:#000000;stroke-width:15;stroke-linecap:round;stroke-linejoin:round;stroke-miterlimit:10;" d="&#10;&#9;&#9;&#9;&#9;M241.503,261.698c0,7.344,5.953,13.297,13.297,13.297h3.717c7.344,0,13.297-5.953,13.297-13.297"/>
			<g>
				
					<line style="fill:none;stroke:#000000;stroke-width:15;stroke-linecap:round;stroke-linejoin:round;stroke-miterlimit:10;" x1="240.159" y1="230.698" x2="240.159" y2="237.67"/>
				
					<line style="fill:none;stroke:#000000;stroke-width:15;stroke-linecap:round;stroke-linejoin:round;stroke-miterlimit:10;" x1="271.841" y1="230.698" x2="271.841" y2="237.67"/>
			</g>
		</g>
	</g>
	<g>
		<path style="fill:none;stroke:#000000;stroke-width:15;stroke-linecap:round;stroke-linejoin:round;stroke-miterlimit:10;" d="&#10;&#9;&#9;&#9;M70.007,421.098c-4.508,12.544-9.866,17.901-22.409,22.409c-2.797,1.005-2.797,4.981,0,5.986&#10;&#9;&#9;&#9;c12.544,4.508,17.901,9.866,22.409,22.409c1.005,2.797,4.981,2.797,5.986,0c4.508-12.544,9.866-17.901,22.409-22.409&#10;&#9;&#9;&#9;c2.797-1.005,2.797-4.981,0-5.986c-12.544-4.508-17.901-9.866-22.409-22.409C74.988,418.301,71.012,418.301,70.007,421.098z"/>
		<path style="fill:none;stroke:#000000;stroke-width:15;stroke-linecap:round;stroke-linejoin:round;stroke-miterlimit:10;" d="&#10;&#9;&#9;&#9;M436.007,421.098c-4.508,12.544-9.866,17.901-22.409,22.409c-2.797,1.005-2.797,4.981,0,5.986&#10;&#9;&#9;&#9;c12.544,4.508,17.901,9.866,22.409,22.409c1.005,2.797,4.981,2.797,5.986,0c4.508-12.544,9.866-17.901,22.409-22.409&#10;&#9;&#9;&#9;c2.797-1.005,2.797-4.981,0-5.986c-12.544-4.508-17.901-9.866-22.409-22.409C440.988,418.301,437.012,418.301,436.007,421.098z"/>
	</g>
</g>















</svg>
