<?xml version="1.0" encoding="UTF-8" standalone="no"?>
<!-- Created with Inkscape (http://www.inkscape.org/) -->

<svg
   version="1.1"
   id="svg1590"
   xml:space="preserve"
   width="682.66669"
   height="682.66669"
   viewBox="0 0 682.66669 682.66669"
   xmlns="http://www.w3.org/2000/svg"
   xmlns:svg="http://www.w3.org/2000/svg"><defs
     id="defs1594"><clipPath
       clipPathUnits="userSpaceOnUse"
       id="clipPath1604"><path
         d="M 0,512 H 512 V 0 H 0 Z"
         id="path1602" /></clipPath></defs><g
     id="g1596"
     transform="matrix(1.3333333,0,0,-1.3333333,0,682.66667)"><g
       id="g1598"><g
         id="g1600"
         clip-path="url(#clipPath1604)"><g
           id="g1606"
           transform="translate(199.5654,303.9551)"><path
             d="m 0,0 c 0,-18.037 -14.621,-32.658 -32.657,-32.658 -18.036,0 -32.658,14.621 -32.658,32.658 0,18.036 14.622,32.658 32.658,32.658 C -14.621,32.658 0,18.036 0,0 Z"
             style="fill:none;stroke:#000000;stroke-width:15;stroke-linecap:round;stroke-linejoin:round;stroke-miterlimit:10;stroke-dasharray:none;stroke-opacity:1"
             id="path1608" /></g><g
           id="g1610"
           transform="translate(287.0058,345.0098)"><path
             d="m 0,0 c 0,-17.498 -14.185,-31.682 -31.682,-31.682 -17.498,0 -31.682,14.184 -31.682,31.682 0,17.498 14.184,31.682 31.682,31.682 C -14.185,31.682 0,17.498 0,0 Z"
             style="fill:none;stroke:#000000;stroke-width:15;stroke-linecap:round;stroke-linejoin:round;stroke-miterlimit:10;stroke-dasharray:none;stroke-opacity:1"
             id="path1612" /></g><g
           id="g1614"
           transform="translate(214.7109,112.7065)"><path
             d="m 0,0 c 0,-17.497 -14.185,-31.682 -31.682,-31.682 -17.498,0 -31.682,14.185 -31.682,31.682 0,17.498 14.184,31.682 31.682,31.682 C -14.185,31.682 0,17.498 0,0 Z"
             style="fill:none;stroke:#000000;stroke-width:15;stroke-linecap:round;stroke-linejoin:round;stroke-miterlimit:10;stroke-dasharray:none;stroke-opacity:1"
             id="path1616" /></g><g
           id="g1618"
           transform="translate(306.9795,83.0996)"><path
             d="m 0,0 c 0,-17.498 -14.185,-31.682 -31.683,-31.682 -17.497,0 -31.681,14.184 -31.681,31.682 0,17.497 14.184,31.682 31.681,31.682 C -14.185,31.682 0,17.497 0,0 Z"
             style="fill:none;stroke:#000000;stroke-width:15;stroke-linecap:round;stroke-linejoin:round;stroke-miterlimit:10;stroke-dasharray:none;stroke-opacity:1"
             id="path1620" /></g><g
           id="g1622"
           transform="translate(168.8994,205.0806)"><path
             d="m 0,0 c 0,-21.111 -17.113,-38.225 -38.225,-38.225 -21.111,0 -38.224,17.114 -38.224,38.225 0,21.111 17.113,38.225 38.224,38.225 C -17.113,38.225 0,21.111 0,0 Z"
             style="fill:none;stroke:#000000;stroke-width:15;stroke-linecap:round;stroke-linejoin:round;stroke-miterlimit:10;stroke-dasharray:none;stroke-opacity:1"
             id="path1624" /></g><g
           id="g1626"
           transform="translate(423.3525,356.4248)"><path
             d="m 0,0 c -14.749,12.879 -31.479,23.892 -49.733,32.624 l 14.012,-51.538 h -0.001 c 4.025,0.354 7.848,-2.201 8.946,-6.236 l 3.533,-12.997 c 1.232,-4.533 -1.444,-9.207 -5.977,-10.44 l -6.038,-1.642 13.33,-42.49 C 19.436,-81.797 32.897,-28.728 0,0 Z"
             style="fill:none;stroke:#000000;stroke-width:15;stroke-linecap:round;stroke-linejoin:round;stroke-miterlimit:10;stroke-dasharray:none;stroke-opacity:1"
             id="path1628" /></g><g
           id="g1630"
           transform="translate(386.1357,337.2515)"><path
             d="m 0,0 -48.043,-13.062 c -4.533,-1.233 -7.209,-5.907 -5.977,-10.44 l 3.534,-12.998 c 1.232,-4.533 5.907,-7.208 10.44,-5.976 l 48.043,13.062 c 4.533,1.233 7.209,5.907 5.977,10.44 L 10.44,-5.977 C 9.208,-1.443 4.533,1.232 0,0 Z"
             style="fill:none;stroke:#000000;stroke-width:15;stroke-linecap:round;stroke-linejoin:round;stroke-miterlimit:10;stroke-dasharray:none;stroke-opacity:1"
             id="path1632" /></g><g
           id="g1634"
           transform="translate(338.0927,324.1895)"><path
             d="m 0,0 48.043,13.062 c 0.499,0.136 0.999,0.216 1.496,0.26 L 33.418,72.613 c -1.449,5.334 -6.949,8.482 -12.282,7.032 l -31.647,-8.604 c -5.333,-1.451 -8.481,-6.95 -7.031,-12.283 L -1.422,-0.534 C -0.971,-0.32 -0.499,-0.136 0,0 Z"
             style="fill:none;stroke:#000000;stroke-width:15;stroke-linecap:round;stroke-linejoin:round;stroke-miterlimit:10;stroke-dasharray:none;stroke-opacity:1"
             id="path1636" /></g><g
           id="g1638"
           transform="translate(321.7822,502.3369)"><path
             d="M 0,0 C -3.986,3.967 -10.356,2.234 -11.785,-3.204 -20,-34.479 -41.771,-46.873 -34.407,-73.959 -28.48,-95.758 -9.06,-105.461 1.8,-109.276 c 1.116,0.989 2.463,1.751 4,2.169 l 31.646,8.604 c 1.537,0.418 3.085,0.443 4.548,0.155 7.432,8.788 19.267,26.989 13.34,48.788 C 47.969,-22.474 22.92,-22.81 0,0 Z"
             style="fill:none;stroke:#000000;stroke-width:15;stroke-linecap:round;stroke-linejoin:round;stroke-miterlimit:10;stroke-dasharray:none;stroke-opacity:1"
             id="path1640" /></g><g
           id="g1642"
           transform="translate(292.7978,14.853)"><path
             d="m 0,0 c 19.315,1.702 38.826,5.802 58.126,12.598 28.978,10.203 46.286,33.487 51.468,59.07 -6.904,20.35 -8.987,31.142 -17.736,69.031 -7.124,8.113 -16.224,15.004 -27.34,19.995 -21.942,9.852 -35.439,22.923 -35.439,37.397 0,15.566 15.577,29.463 40.404,39.504 l -10.153,43.969 -6.038,-1.642 c -4.533,-1.232 -9.208,1.444 -10.44,5.977 l -3.534,12.997 c -1.097,4.035 0.907,8.174 4.555,9.907 l -16.12,59.291 c -1.032,3.797 0.273,7.669 3.031,10.114 -7.264,2.552 -18.355,7.746 -26.68,17.426 -130.448,13.408 -243.263,-79.421 -243.263,-197.543 0,-109.305 94.595,-191.905 204.159,-198.58"
             style="fill:none;stroke:#000000;stroke-width:15;stroke-linecap:round;stroke-linejoin:round;stroke-miterlimit:10;stroke-dasharray:none;stroke-opacity:1"
             id="path1644" /></g><g
           id="g1646"
           transform="translate(430.9756,169.5122)"><path
             d="m 0,0 -42.881,136.684 -35.967,-9.779 41.032,-177.688 c 7.687,-32.754 20.092,-64.216 36.828,-93.402 l 6.911,-12.051 c 2.601,-4.537 7.938,-6.745 12.985,-5.373 5.047,1.372 8.53,5.979 8.477,11.209 l -0.143,13.891 C 26.857,-99.15 20.784,-66.251 10.48,-33.407"
             style="fill:none;stroke:#000000;stroke-width:15;stroke-linecap:round;stroke-linejoin:round;stroke-miterlimit:10;stroke-dasharray:none;stroke-opacity:1"
             id="path1648" /></g></g></g></g></svg>
