<svg clip-rule="evenodd" fill-rule="evenodd" stroke-linejoin="round" stroke-miterlimit="2" viewBox="0 0 510 510" xmlns="http://www.w3.org/2000/svg"><path d="m290.041 397.964c4.591 6.767 7.273 14.934 7.273 23.727 0 23.369-18.944 42.313-42.314 42.313s-42.314-18.944-42.314-42.313 18.944-42.314 42.314-42.314c8.794 0 16.96 2.683 23.727 7.273l45.361-45.36c3.122-3.122 8.191-3.122 11.313 0s3.122 8.192 0 11.314zm-16.434 5.12c-4.762-4.762-11.34-7.707-18.607-7.707-14.533 0-26.314 11.781-26.314 26.314s11.781 26.313 26.314 26.313 26.314-11.78 26.314-26.313c0-7.266-2.945-13.845-7.707-18.607zm-18.607-229.394c136.966 0 248 111.034 248 248.001 0 4.418-3.582 8-8 8h-89.468c-4.418 0-8-3.582-8-8 0-78.717-63.816-142.532-142.532-142.532-78.717 0-142.532 63.815-142.532 142.532 0 4.418-3.582 8-8 8h-89.468c-4.418 0-8-3.582-8-8 0-136.967 111.034-248.001 248-248.001zm-204.838 138.975c-16.158 30.294-25.792 64.595-27.027 101.026h73.532c1.146-23.058 7.218-44.82 17.187-64.254zm71.705 22.924c12.181-18.797 28.235-34.851 47.031-47.032l-36.772-63.692c-29.906 18.709-55.242 44.045-73.951 73.951zm60.88-55.045c19.434-9.968 41.195-16.041 64.253-17.187v-73.532c-36.431 1.235-70.731 10.869-101.026 27.027zm80.253-17.187c23.058 1.146 44.82 7.219 64.254 17.188l36.772-63.693c-30.295-16.158-64.595-25.792-101.026-27.027zm78.102 25.201c18.796 12.181 34.85 28.235 47.031 47.031l63.692-36.773c-18.709-29.906-44.045-55.242-73.95-73.951zm55.044 60.88c9.969 19.433 16.041 41.195 17.187 64.253h73.532c-1.235-36.431-10.869-70.732-27.027-101.026zm-161.881-273.568 6.299-19.386c2.032-6.254 7.86-10.488 14.436-10.488s12.404 4.234 14.436 10.488l6.299 19.386h20.384c6.575 0 12.403 4.234 14.435 10.488s-.194 13.105-5.514 16.97l-16.491 11.982 6.299 19.386c2.032 6.254-.194 13.105-5.514 16.97-5.319 3.865-12.523 3.865-17.843 0l-16.491-11.981-16.491 11.981c-5.32 3.865-12.524 3.865-17.843 0-5.32-3.865-7.546-10.716-5.514-16.97l6.299-19.386-16.491-11.982c-5.32-3.865-7.546-10.716-5.514-16.97s7.86-10.488 14.435-10.488zm-17.855 16 14.928 10.846c5.32 3.865 7.546 10.716 5.514 16.97l-5.702 17.55 14.928-10.847c5.32-3.865 12.524-3.865 17.844 0l14.928 10.847-5.702-17.55c-2.032-6.254.194-13.105 5.514-16.97l14.928-10.846h-18.452c-6.576 0-12.404-4.234-14.436-10.488l-5.702-17.549-5.702 17.549c-2.032 6.254-7.86 10.488-14.436 10.488zm-152.277 40.699-4.238-19.939c-1.367-6.432 1.563-13.013 7.257-16.301 5.695-3.287 12.859-2.535 17.746 1.866l15.148 13.639 17.653-10.192c5.695-3.288 12.859-2.535 17.746 1.865s6.384 11.446 3.71 17.454l-8.291 18.621 15.148 13.64c4.887 4.4 6.385 11.446 3.71 17.453-2.675 6.008-8.913 9.609-15.453 8.922l-20.272-2.131-8.291 18.622c-2.675 6.007-8.913 9.609-15.453 8.922-6.54-.688-11.893-5.508-13.26-11.94l-4.238-19.938-20.273-2.131c-6.539-.687-11.893-5.508-13.26-11.94s1.563-13.012 7.258-16.3zm-7.464 22.784 18.352 1.929c6.54.687 11.893 5.507 13.26 11.939l3.837 18.05 7.505-16.858c2.674-6.007 8.913-9.609 15.453-8.921l18.351 1.928-13.713-12.347c-4.886-4.4-6.384-11.446-3.71-17.453l7.506-16.857-15.981 9.226c-5.694 3.288-12.859 2.535-17.745-1.865l-13.713-12.347 3.836 18.049c1.367 6.432-1.562 13.013-7.257 16.301zm322.467-15.771-8.291-18.622c-2.674-6.007-1.177-13.053 3.71-17.453s12.051-5.153 17.746-1.865l17.653 10.192 15.148-13.64c4.887-4.4 12.051-5.153 17.746-1.865 5.694 3.288 8.624 9.869 7.257 16.301l-4.238 19.938 17.653 10.192c5.695 3.288 8.625 9.869 7.258 16.301s-6.721 11.252-13.26 11.94l-20.273 2.13-4.238 19.939c-1.367 6.432-6.72 11.252-13.26 11.94-6.54.687-12.778-2.915-15.453-8.922l-8.291-18.622-20.272 2.131c-6.54.687-12.778-2.915-15.453-8.922s-1.177-13.053 3.71-17.453zm-2.563 23.838 18.351-1.929c6.54-.687 12.779 2.915 15.453 8.922l7.506 16.857 3.836-18.049c1.367-6.432 6.721-11.252 13.26-11.94l18.352-1.928-15.981-9.227c-5.694-3.287-8.624-9.868-7.257-16.3l3.836-18.05-13.713 12.347c-4.886 4.4-12.051 5.153-17.745 1.866l-15.981-9.227 7.506 16.858c2.674 6.007 1.177 13.053-3.71 17.453z"/></svg>