<svg width="420" height="340" viewBox="0 0 420 340" fill="none" xmlns="http://www.w3.org/2000/svg">
<path d="M58.47 160.572L152.603 135.349L173.193 212.191L79.0597 237.414L58.47 160.572Z" fill="#CCE2FF"/>
<mask id="mask0_43_3059" style="mask-type:alpha" maskUnits="userSpaceOnUse" x="58" y="135" width="116" height="103">
<path d="M58.47 160.572L152.603 135.349L173.193 212.191L79.0597 237.414L58.47 160.572Z" fill="#CCE2FF"/>
</mask>
<g mask="url(#mask0_43_3059)">
<path d="M80.9358 239.571C83.0238 239.012 84.2609 236.858 83.699 234.761C83.1371 232.664 80.989 231.418 78.9011 231.977C76.8131 232.536 75.576 234.69 76.1379 236.787C76.6998 238.884 78.8479 240.13 80.9358 239.571Z" fill="#66A9FF"/>
<path d="M81.6133 226.977C82.1471 228.969 84.1878 230.153 86.1714 229.622C88.1549 229.091 89.3301 227.045 88.7963 225.053C88.2625 223.06 86.2218 221.876 84.2383 222.408C82.2548 222.939 81.0795 224.985 81.6133 226.977Z" fill="#66A9FF"/>
<path d="M76.968 224.763C78.8471 224.259 79.9605 222.321 79.4548 220.434C78.9491 218.547 77.0158 217.425 75.1367 217.928C73.2576 218.432 72.1442 220.37 72.6499 222.257C73.1556 224.145 75.0889 225.266 76.968 224.763Z" fill="#66A9FF"/>
<path d="M69.5907 207.816C70.0122 209.389 71.6232 210.324 73.1892 209.904C74.7551 209.484 75.683 207.869 75.2615 206.296C74.8401 204.724 73.229 203.789 71.6631 204.209C70.0971 204.628 69.1693 206.243 69.5907 207.816Z" fill="#66A9FF"/>
<path d="M78.227 212.827C78.7046 214.61 80.5305 215.669 82.3052 215.194C84.08 214.718 85.1315 212.888 84.6539 211.105C84.1763 209.323 82.3504 208.263 80.5757 208.739C78.8009 209.214 77.7494 211.045 78.227 212.827Z" fill="#66A9FF"/>
<path d="M86.9141 218.028C87.4198 219.915 89.3531 221.037 91.2323 220.534C93.1114 220.03 94.2248 218.092 93.7191 216.205C93.2134 214.317 91.2801 213.196 89.401 213.699C87.5218 214.203 86.4084 216.141 86.9141 218.028Z" fill="#66A9FF"/>
<path d="M92.593 208.978C93.0144 210.551 94.6255 211.485 96.1915 211.066C97.7574 210.646 98.6852 209.031 98.2638 207.458C97.8424 205.886 96.2313 204.951 94.6654 205.37C93.0994 205.79 92.1716 207.405 92.593 208.978Z" fill="#66A9FF"/>
<path d="M84.2839 203.675C84.6773 205.143 86.1809 206.016 87.6425 205.624C89.104 205.233 89.97 203.725 89.5767 202.257C89.1834 200.789 87.6797 199.917 86.2181 200.308C84.7566 200.7 83.8906 202.208 84.2839 203.675Z" fill="#66A9FF"/>
<path d="M75.2188 198.576C75.584 199.939 76.9803 200.749 78.3374 200.385C79.6946 200.022 80.4987 198.622 80.1334 197.259C79.7682 195.896 78.3719 195.086 77.0148 195.449C75.6576 195.813 74.8535 197.213 75.2188 198.576Z" fill="#66A9FF"/>
<path d="M68.9306 194.767C69.9745 194.487 70.5931 193.41 70.3122 192.362C70.0312 191.313 68.9572 190.69 67.9132 190.97C66.8692 191.249 66.2507 192.326 66.5316 193.375C66.8126 194.423 67.8866 195.046 68.9306 194.767Z" fill="#66A9FF"/>
<path d="M65.05 179.528C65.572 179.388 65.8813 178.85 65.7408 178.326C65.6003 177.801 65.0633 177.49 64.5413 177.63C64.0193 177.77 63.7101 178.308 63.8505 178.832C63.991 179.356 64.528 179.668 65.05 179.528Z" fill="#66A9FF"/>
<path d="M81.2248 189.234C81.4777 190.178 82.4443 190.739 83.3839 190.487C84.3235 190.235 84.8802 189.266 84.6273 188.323C84.3745 187.379 83.4078 186.818 82.4682 187.07C81.5287 187.322 80.972 188.291 81.2248 189.234Z" fill="#66A9FF"/>
<path d="M72.4868 183.843C72.6835 184.577 73.4353 185.014 74.1661 184.818C74.8969 184.622 75.3298 183.868 75.1332 183.134C74.9365 182.4 74.1847 181.964 73.4539 182.16C72.7231 182.356 72.2902 183.109 72.4868 183.843Z" fill="#66A9FF"/>
<path d="M89.8611 194.245C90.1701 195.399 91.3516 196.084 92.4999 195.777C93.6483 195.469 94.3287 194.284 94.0197 193.131C93.7106 191.978 92.5292 191.292 91.3808 191.6C90.2324 191.908 89.552 193.092 89.8611 194.245Z" fill="#66A9FF"/>
<path d="M98.5482 199.446C98.8854 200.705 100.174 201.452 101.427 201.117C102.68 200.781 103.422 199.489 103.085 198.231C102.748 196.973 101.459 196.225 100.206 196.56C98.9533 196.896 98.2111 198.188 98.5482 199.446Z" fill="#66A9FF"/>
<path d="M149.328 216.565C149.58 217.509 150.547 218.07 151.487 217.818C152.426 217.566 152.983 216.597 152.73 215.654C152.477 214.71 151.511 214.149 150.571 214.401C149.631 214.653 149.075 215.622 149.328 216.565Z" fill="#66A9FF"/>
<path d="M104.227 190.396C104.48 191.34 105.447 191.901 106.386 191.649C107.326 191.397 107.882 190.428 107.63 189.484C107.377 188.541 106.41 187.98 105.471 188.232C104.531 188.483 103.974 189.452 104.227 190.396Z" fill="#66A9FF"/>
<path d="M95.9689 185.284C96.1656 186.018 96.9174 186.454 97.6482 186.258C98.3789 186.062 98.8119 185.308 98.6153 184.574C98.4186 183.841 97.6668 183.404 96.936 183.6C96.2052 183.796 95.7722 184.55 95.9689 185.284Z" fill="#66A9FF"/>
<path d="M86.9037 180.184C87.0723 180.813 87.7167 181.187 88.3431 181.019C88.9695 180.851 89.3406 180.205 89.172 179.576C89.0034 178.947 88.359 178.573 87.7326 178.741C87.1063 178.909 86.7351 179.555 86.9037 180.184Z" fill="#66A9FF"/>
<path d="M101.648 176.233C101.76 176.653 102.19 176.902 102.607 176.79C103.025 176.678 103.272 176.247 103.16 175.828C103.048 175.409 102.618 175.159 102.2 175.271C101.783 175.383 101.535 175.814 101.648 176.233Z" fill="#66A9FF"/>
<path d="M164.45 212.513C164.59 213.038 165.127 213.349 165.649 213.209C166.171 213.07 166.48 212.531 166.34 212.007C166.199 211.483 165.662 211.171 165.141 211.311C164.619 211.451 164.309 211.989 164.45 212.513Z" fill="#66A9FF"/>
<path d="M110.233 181.055C110.374 181.579 110.911 181.89 111.433 181.751C111.955 181.611 112.264 181.072 112.123 180.548C111.983 180.024 111.446 179.712 110.924 179.852C110.402 179.992 110.093 180.53 110.233 181.055Z" fill="#66A9FF"/>
<path d="M155.385 207.414C155.553 208.043 156.198 208.417 156.824 208.249C157.45 208.081 157.821 207.435 157.653 206.806C157.484 206.177 156.84 205.803 156.213 205.971C155.587 206.139 155.216 206.785 155.385 207.414Z" fill="#66A9FF"/>
<path d="M134.256 220.807C134.65 222.275 136.153 223.148 137.615 222.756C139.076 222.364 139.942 220.857 139.549 219.389C139.156 217.921 137.652 217.049 136.191 217.44C134.729 217.832 133.863 219.339 134.256 220.807Z" fill="#66A9FF"/>
<path d="M139.935 211.757C140.244 212.91 141.426 213.596 142.574 213.288C143.722 212.98 144.403 211.796 144.094 210.643C143.785 209.489 142.603 208.804 141.455 209.111C140.307 209.419 139.626 210.604 139.935 211.757Z" fill="#66A9FF"/>
<path d="M145.941 202.415C146.138 203.149 146.89 203.586 147.621 203.39C148.351 203.194 148.784 202.44 148.588 201.706C148.391 200.972 147.639 200.536 146.908 200.732C146.178 200.928 145.745 201.681 145.941 202.415Z" fill="#66A9FF"/>
<path d="M90.7294 232.267C91.2632 234.259 93.3039 235.443 95.2874 234.912C97.2709 234.38 98.4462 232.334 97.9124 230.342C97.3786 228.35 95.3379 227.166 93.3544 227.697C91.3708 228.229 90.1956 230.275 90.7294 232.267Z" fill="#66A9FF"/>
<path d="M96.0302 223.318C96.5359 225.205 98.4692 226.327 100.348 225.823C102.227 225.32 103.341 223.382 102.835 221.494C102.329 219.607 100.396 218.485 98.517 218.989C96.6379 219.492 95.5245 221.43 96.0302 223.318Z" fill="#66A9FF"/>
<path d="M119.461 224.568C119.939 226.351 121.765 227.41 123.54 226.934C125.314 226.459 126.366 224.628 125.888 222.846C125.411 221.064 123.585 220.004 121.81 220.48C120.035 220.955 118.984 222.786 119.461 224.568Z" fill="#66A9FF"/>
<path d="M101.658 214.077C102.108 215.755 103.826 216.752 105.497 216.305C107.167 215.857 108.157 214.134 107.707 212.457C107.258 210.779 105.539 209.782 103.869 210.23C102.198 210.677 101.209 212.4 101.658 214.077Z" fill="#66A9FF"/>
<path d="M125.14 215.518C125.534 216.986 127.037 217.858 128.499 217.466C129.96 217.075 130.826 215.567 130.433 214.099C130.04 212.632 128.536 211.759 127.074 212.151C125.613 212.542 124.747 214.05 125.14 215.518Z" fill="#66A9FF"/>
<path d="M107.337 205.027C107.702 206.39 109.099 207.2 110.456 206.837C111.813 206.473 112.617 205.073 112.252 203.71C111.887 202.347 110.49 201.537 109.133 201.901C107.776 202.264 106.972 203.664 107.337 205.027Z" fill="#66A9FF"/>
<path d="M130.819 206.467C131.128 207.621 132.31 208.306 133.458 207.999C134.606 207.691 135.287 206.506 134.978 205.353C134.669 204.2 133.487 203.514 132.339 203.822C131.191 204.13 130.51 205.314 130.819 206.467Z" fill="#66A9FF"/>
<path d="M113.016 195.977C113.297 197.025 114.371 197.648 115.415 197.369C116.459 197.089 117.077 196.012 116.797 194.964C116.516 193.915 115.442 193.292 114.398 193.572C113.354 193.851 112.735 194.928 113.016 195.977Z" fill="#66A9FF"/>
<path d="M136.825 197.126C137.022 197.86 137.774 198.296 138.505 198.1C139.235 197.904 139.668 197.151 139.472 196.417C139.275 195.683 138.523 195.246 137.792 195.442C137.062 195.638 136.629 196.392 136.825 197.126Z" fill="#66A9FF"/>
<path d="M119.022 186.635C119.191 187.264 119.835 187.638 120.461 187.47C121.088 187.303 121.459 186.657 121.29 186.027C121.122 185.398 120.477 185.024 119.851 185.192C119.225 185.36 118.853 186.006 119.022 186.635Z" fill="#66A9FF"/>
<path d="M105.095 228.417C105.629 230.41 107.67 231.594 109.653 231.062C111.637 230.531 112.812 228.485 112.278 226.493C111.745 224.501 109.704 223.316 107.72 223.848C105.737 224.379 104.562 226.425 105.095 228.417Z" fill="#66A9FF"/>
<path d="M110.673 218.987C111.122 220.665 112.841 221.662 114.511 221.215C116.181 220.767 117.171 219.044 116.721 217.367C116.272 215.689 114.553 214.692 112.883 215.139C111.213 215.587 110.223 217.31 110.673 218.987Z" fill="#66A9FF"/>
<path d="M116.351 209.937C116.717 211.3 118.113 212.11 119.47 211.747C120.827 211.383 121.631 209.983 121.266 208.62C120.901 207.257 119.505 206.447 118.147 206.811C116.79 207.174 115.986 208.574 116.351 209.937Z" fill="#66A9FF"/>
<path d="M122.081 201.076C122.39 202.23 123.572 202.915 124.72 202.608C125.868 202.3 126.549 201.116 126.24 199.962C125.931 198.809 124.749 198.123 123.601 198.431C122.453 198.739 121.772 199.923 122.081 201.076Z" fill="#66A9FF"/>
<path d="M127.658 191.646C127.883 192.485 128.742 192.984 129.577 192.76C130.413 192.536 130.907 191.675 130.683 190.836C130.458 189.997 129.599 189.499 128.764 189.722C127.928 189.946 127.434 190.808 127.658 191.646Z" fill="#66A9FF"/>
</g>
<path d="M152.816 136.143L243.86 42.895L297.957 240.162L173.287 212.541L152.816 136.143Z" fill="#66A9FF"/>
<mask id="mask1_43_3059" style="mask-type:alpha" maskUnits="userSpaceOnUse" x="152" y="42" width="146" height="199">
<path d="M152.816 136.143L243.86 42.895L297.957 240.162L173.287 212.541L152.816 136.143Z" fill="#66A9FF"/>
</mask>
<g mask="url(#mask1_43_3059)">
<path d="M235.479 98.391C236.153 100.907 234.669 103.492 232.163 104.163C229.658 104.834 227.08 103.339 226.406 100.822C225.732 98.3058 227.216 95.7216 229.722 95.0502C232.227 94.3789 234.805 95.8746 235.479 98.391Z" fill="#0068D3"/>
<path d="M220.735 102.342C221.353 104.648 219.992 107.017 217.696 107.633C215.399 108.248 213.036 106.877 212.418 104.57C211.8 102.264 213.161 99.8947 215.457 99.2793C217.754 98.6639 220.117 100.035 220.735 102.342Z" fill="#0068D3"/>
<path d="M206.369 106.191C206.931 108.288 205.694 110.442 203.606 111.001C201.518 111.56 199.37 110.314 198.808 108.217C198.246 106.12 199.483 103.967 201.571 103.407C203.659 102.848 205.807 104.094 206.369 106.191Z" fill="#0068D3"/>
<path d="M191.247 110.243C191.696 111.921 190.707 113.643 189.036 114.091C187.366 114.539 185.648 113.541 185.198 111.864C184.749 110.186 185.738 108.463 187.409 108.016C189.079 107.568 190.797 108.565 191.247 110.243Z" fill="#0068D3"/>
<path d="M176.503 114.194C176.84 115.452 176.098 116.744 174.845 117.08C173.592 117.415 172.303 116.667 171.966 115.409C171.629 114.151 172.371 112.859 173.624 112.523C174.877 112.188 176.166 112.935 176.503 114.194Z" fill="#0068D3"/>
<path d="M211.619 97.0521C212.181 99.1491 210.944 101.303 208.856 101.862C206.768 102.422 204.62 101.175 204.058 99.0781C203.496 96.9811 204.733 94.8276 206.821 94.2681C208.909 93.7087 211.057 94.9551 211.619 97.0521Z" fill="#0068D3"/>
<path d="M240.283 48.2689C238.195 48.8284 236.047 47.5819 235.485 45.4849C234.923 43.3879 236.16 41.2344 238.248 40.675C240.336 40.1155 242.484 41.362 243.046 43.459C243.608 45.556 242.371 47.7095 240.283 48.2689Z" fill="#0068D3"/>
<path d="M216.92 88.103C217.51 90.3049 216.211 92.5661 214.019 93.1535C211.826 93.7409 209.571 92.4322 208.981 90.2303C208.391 88.0285 209.69 85.7673 211.882 85.1799C214.074 84.5924 216.33 85.9012 216.92 88.103Z" fill="#0068D3"/>
<path d="M207.426 82.9148C207.96 84.9069 206.784 86.9527 204.801 87.4842C202.817 88.0157 200.777 86.8316 200.243 84.8395C199.709 82.8473 200.884 80.8015 202.868 80.27C204.851 79.7385 206.892 80.9226 207.426 82.9148Z" fill="#0068D3"/>
<path d="M202.176 92.0537C202.71 94.0459 201.534 96.0917 199.551 96.6232C197.567 97.1547 195.527 95.9705 194.993 93.9784C194.459 91.9862 195.634 89.9404 197.618 89.4089C199.601 88.8774 201.642 90.0615 202.176 92.0537Z" fill="#0068D3"/>
<path d="M196.875 101.003C197.381 102.89 196.267 104.828 194.388 105.332C192.509 105.835 190.576 104.713 190.07 102.826C189.564 100.939 190.678 99.0007 192.557 98.4972C194.436 97.9937 196.369 99.1155 196.875 101.003Z" fill="#0068D3"/>
<path d="M182.182 105.143C182.603 106.716 181.675 108.331 180.109 108.751C178.543 109.17 176.932 108.236 176.511 106.663C176.09 105.09 177.017 103.475 178.583 103.055C180.149 102.636 181.76 103.571 182.182 105.143Z" fill="#0068D3"/>
<path d="M226.036 93.3926C226.682 95.8042 225.259 98.2807 222.858 98.9241C220.457 99.5674 217.987 98.134 217.341 95.7225C216.695 93.3109 218.117 90.8344 220.518 90.191C222.919 89.5477 225.39 90.981 226.036 93.3926Z" fill="#0068D3"/>
<path d="M231.286 84.2537C231.932 86.6652 230.509 89.1418 228.108 89.7851C225.707 90.4285 223.237 88.9951 222.591 86.5836C221.944 84.172 223.367 81.6955 225.768 81.0521C228.169 80.4087 230.64 81.8421 231.286 84.2537Z" fill="#0068D3"/>
<path d="M222.221 79.154C222.839 81.4607 221.478 83.8295 219.181 84.4449C216.885 85.0603 214.522 83.6893 213.904 81.3825C213.285 79.0758 214.646 76.707 216.943 76.0916C219.24 75.4762 221.603 76.8473 222.221 79.154Z" fill="#0068D3"/>
<path d="M212.727 73.9657C213.288 76.0627 212.051 78.2162 209.963 78.7757C207.875 79.3351 205.727 78.0887 205.165 75.9917C204.604 73.8947 205.841 71.7412 207.929 71.1817C210.017 70.6223 212.165 71.8687 212.727 73.9657Z" fill="#0068D3"/>
<path d="M236.536 75.1148C237.182 77.5263 235.759 80.0028 233.358 80.6462C230.957 81.2896 228.487 79.8562 227.841 77.4446C227.194 75.0331 228.617 72.5566 231.018 71.9132C233.419 71.2698 235.89 72.7032 236.536 75.1148Z" fill="#0068D3"/>
<path d="M227.471 70.015C228.089 72.3218 226.728 74.6906 224.431 75.306C222.134 75.9214 219.772 74.5503 219.153 72.2436C218.535 69.9369 219.896 67.5681 222.193 66.9527C224.49 66.3373 226.853 67.7083 227.471 70.015Z" fill="#0068D3"/>
<path d="M237.592 51.8385C238.211 54.1452 236.85 56.514 234.553 57.1294C232.256 57.7449 229.893 56.3738 229.275 54.0671C228.657 51.7604 230.018 49.3915 232.315 48.7761C234.612 48.1607 236.974 49.5318 237.592 51.8385Z" fill="#0068D3"/>
<path d="M232.343 60.9774C232.961 63.2841 231.6 65.653 229.303 66.2684C227.006 66.8838 224.643 65.5127 224.025 63.206C223.407 60.8993 224.768 58.5304 227.065 57.915C229.362 57.2996 231.724 58.6707 232.343 60.9774Z" fill="#0068D3"/>
<path d="M215.485 111.481C214.923 109.384 212.775 108.137 210.687 108.697C208.599 109.256 207.362 111.41 207.924 113.507C208.486 115.604 210.634 116.85 212.722 116.291C214.81 115.731 216.047 113.578 215.485 111.481Z" fill="#0068D3"/>
<path d="M224.55 116.58C223.96 114.378 221.705 113.07 219.512 113.657C217.32 114.245 216.021 116.506 216.611 118.708C217.201 120.909 219.457 122.218 221.649 121.631C223.841 121.043 225.14 118.782 224.55 116.58Z" fill="#0068D3"/>
<path d="M218.922 125.821C218.388 123.828 216.348 122.644 214.364 123.176C212.381 123.707 211.205 125.753 211.739 127.745C212.273 129.737 214.314 130.921 216.297 130.39C218.281 129.859 219.456 127.813 218.922 125.821Z" fill="#0068D3"/>
<path d="M209.806 120.531C209.272 118.539 207.232 117.355 205.248 117.886C203.265 118.418 202.089 120.464 202.623 122.456C203.157 124.448 205.198 125.632 207.181 125.1C209.165 124.569 210.34 122.523 209.806 120.531Z" fill="#0068D3"/>
<path d="M200.741 115.431C200.235 113.544 198.302 112.422 196.423 112.926C194.544 113.429 193.43 115.367 193.936 117.255C194.442 119.142 196.375 120.264 198.254 119.76C200.133 119.257 201.247 117.319 200.741 115.431Z" fill="#0068D3"/>
<path d="M185.946 119.192C185.525 117.619 183.914 116.684 182.348 117.104C180.782 117.524 179.854 119.139 180.275 120.712C180.697 122.284 182.308 123.219 183.874 122.8C185.44 122.38 186.368 120.765 185.946 119.192Z" fill="#0068D3"/>
<path d="M195.44 124.38C194.963 122.598 193.137 121.538 191.362 122.014C189.587 122.489 188.536 124.32 189.013 126.102C189.491 127.885 191.317 128.944 193.092 128.469C194.866 127.993 195.918 126.163 195.44 124.38Z" fill="#0068D3"/>
<path d="M204.505 129.48C204 127.593 202.066 126.471 200.187 126.974C198.308 127.478 197.195 129.416 197.7 131.303C198.206 133.191 200.139 134.313 202.019 133.809C203.898 133.305 205.011 131.367 204.505 129.48Z" fill="#0068D3"/>
<path d="M213.571 134.58C213.037 132.588 210.996 131.403 209.013 131.935C207.029 132.466 205.854 134.512 206.388 136.504C206.921 138.497 208.962 139.681 210.946 139.149C212.929 138.618 214.104 136.572 213.571 134.58Z" fill="#0068D3"/>
<path d="M207.993 144.01C207.544 142.332 205.825 141.335 204.155 141.783C202.485 142.23 201.495 143.953 201.945 145.631C202.394 147.308 204.113 148.305 205.783 147.858C207.453 147.41 208.443 145.687 207.993 144.01Z" fill="#0068D3"/>
<path d="M198.827 138.53C198.405 136.958 196.794 136.023 195.228 136.442C193.662 136.862 192.734 138.477 193.156 140.05C193.577 141.623 195.188 142.557 196.754 142.138C198.32 141.718 199.248 140.103 198.827 138.53Z" fill="#0068D3"/>
<path d="M189.383 133.532C188.99 132.064 187.486 131.192 186.025 131.583C184.563 131.975 183.697 133.482 184.091 134.95C184.484 136.418 185.988 137.291 187.449 136.899C188.911 136.507 189.777 135 189.383 133.532Z" fill="#0068D3"/>
<path d="M180.318 128.432C179.953 127.069 178.557 126.259 177.199 126.623C175.842 126.986 175.038 128.386 175.403 129.749C175.769 131.112 177.165 131.922 178.522 131.559C179.879 131.195 180.683 129.795 180.318 128.432Z" fill="#0068D3"/>
<path d="M170.875 123.434C170.594 122.385 169.52 121.762 168.476 122.042C167.432 122.322 166.813 123.398 167.094 124.447C167.375 125.495 168.449 126.119 169.493 125.839C170.537 125.559 171.156 124.482 170.875 123.434Z" fill="#0068D3"/>
<path d="M164.818 132.586C164.621 131.852 163.869 131.415 163.139 131.611C162.408 131.807 161.975 132.561 162.172 133.295C162.368 134.029 163.12 134.465 163.851 134.269C164.582 134.073 165.015 133.32 164.818 132.586Z" fill="#0068D3"/>
<path d="M174.639 137.483C174.358 136.434 173.284 135.811 172.24 136.091C171.196 136.37 170.578 137.447 170.859 138.496C171.14 139.544 172.214 140.167 173.258 139.888C174.302 139.608 174.92 138.531 174.639 137.483Z" fill="#0068D3"/>
<path d="M183.806 142.962C183.497 141.809 182.316 141.123 181.167 141.431C180.019 141.739 179.339 142.923 179.648 144.076C179.957 145.23 181.138 145.915 182.286 145.608C183.435 145.3 184.115 144.115 183.806 142.962Z" fill="#0068D3"/>
<path d="M192.871 148.062C192.534 146.804 191.245 146.056 189.993 146.391C188.74 146.727 187.998 148.019 188.335 149.277C188.672 150.536 189.961 151.283 191.213 150.948C192.466 150.612 193.208 149.32 192.871 148.062Z" fill="#0068D3"/>
<path d="M247.088 179.521C246.751 178.263 245.462 177.515 244.209 177.85C242.956 178.186 242.214 179.478 242.551 180.736C242.888 181.995 244.177 182.742 245.43 182.407C246.683 182.071 247.425 180.779 247.088 179.521Z" fill="#0068D3"/>
<path d="M202.365 153.25C201.972 151.782 200.468 150.91 199.007 151.301C197.545 151.693 196.679 153.2 197.073 154.668C197.466 156.136 198.97 157.009 200.431 156.617C201.893 156.225 202.759 154.718 202.365 153.25Z" fill="#0068D3"/>
<path d="M196.309 162.402C196.056 161.458 195.089 160.897 194.149 161.149C193.21 161.401 192.653 162.37 192.906 163.313C193.159 164.257 194.126 164.818 195.065 164.566C196.005 164.314 196.561 163.345 196.309 162.402Z" fill="#0068D3"/>
<path d="M187.192 157.112C186.94 156.169 185.973 155.608 185.033 155.859C184.094 156.111 183.537 157.08 183.79 158.024C184.043 158.968 185.009 159.528 185.949 159.277C186.889 159.025 187.445 158.056 187.192 157.112Z" fill="#0068D3"/>
<path d="M241.409 188.571C241.156 187.627 240.19 187.067 239.25 187.318C238.31 187.57 237.754 188.539 238.007 189.483C238.259 190.426 239.226 190.987 240.166 190.736C241.105 190.484 241.662 189.515 241.409 188.571Z" fill="#0068D3"/>
<path d="M177.698 151.924C177.502 151.19 176.75 150.754 176.019 150.95C175.288 151.145 174.855 151.899 175.052 152.633C175.249 153.367 176 153.803 176.731 153.607C177.462 153.412 177.895 152.658 177.698 151.924Z" fill="#0068D3"/>
<path d="M249.667 193.684C249.471 192.95 248.719 192.513 247.988 192.709C247.257 192.905 246.824 193.659 247.021 194.393C247.218 195.127 247.969 195.563 248.7 195.367C249.431 195.171 249.864 194.418 249.667 193.684Z" fill="#0068D3"/>
<path d="M168.633 146.824C168.465 146.195 167.82 145.821 167.194 145.989C166.567 146.157 166.196 146.803 166.365 147.432C166.533 148.061 167.178 148.435 167.804 148.267C168.431 148.099 168.802 147.453 168.633 146.824Z" fill="#0068D3"/>
<path d="M258.732 198.783C258.564 198.154 257.919 197.78 257.293 197.948C256.667 198.116 256.296 198.762 256.464 199.391C256.633 200.02 257.277 200.394 257.903 200.226C258.53 200.058 258.901 199.412 258.732 198.783Z" fill="#0068D3"/>
<path d="M172.019 160.974C171.907 160.555 171.477 160.306 171.06 160.417C170.642 160.529 170.395 160.96 170.507 161.379C170.62 161.799 171.049 162.048 171.467 161.936C171.884 161.824 172.132 161.394 172.019 160.974Z" fill="#0068D3"/>
<path d="M243.988 202.734C243.876 202.315 243.446 202.065 243.029 202.177C242.611 202.289 242.364 202.72 242.476 203.139C242.589 203.559 243.018 203.808 243.436 203.696C243.853 203.584 244.101 203.153 243.988 202.734Z" fill="#0068D3"/>
<path d="M181.186 166.454C181.046 165.929 180.509 165.618 179.987 165.758C179.465 165.898 179.156 166.436 179.296 166.96C179.437 167.484 179.974 167.796 180.496 167.656C181.018 167.516 181.327 166.978 181.186 166.454Z" fill="#0068D3"/>
<path d="M235.403 197.913C235.262 197.388 234.725 197.077 234.203 197.217C233.681 197.357 233.372 197.895 233.513 198.419C233.653 198.943 234.19 199.255 234.712 199.115C235.234 198.975 235.543 198.437 235.403 197.913Z" fill="#0068D3"/>
<path d="M190.252 171.553C190.083 170.924 189.439 170.55 188.812 170.718C188.186 170.886 187.815 171.532 187.983 172.161C188.152 172.79 188.796 173.164 189.423 172.996C190.049 172.829 190.42 172.183 190.252 171.553Z" fill="#0068D3"/>
<path d="M229.8 107.441C229.154 105.03 226.684 103.596 224.283 104.24C221.882 104.883 220.459 107.36 221.105 109.771C221.751 112.183 224.222 113.616 226.623 112.973C229.024 112.329 230.446 109.853 229.8 107.441Z" fill="#0068D3"/>
<path d="M238.916 112.731C238.27 110.319 235.8 108.886 233.399 109.529C230.998 110.173 229.575 112.649 230.221 115.061C230.867 117.472 233.338 118.906 235.739 118.262C238.14 117.619 239.562 115.143 238.916 112.731Z" fill="#0068D3"/>
<path d="M233.615 121.68C232.997 119.373 230.635 118.002 228.338 118.618C226.041 119.233 224.68 121.602 225.298 123.909C225.916 126.215 228.279 127.586 230.576 126.971C232.873 126.356 234.234 123.987 233.615 121.68Z" fill="#0068D3"/>
<path d="M227.987 130.92C227.426 128.823 225.277 127.577 223.19 128.136C221.102 128.696 219.865 130.849 220.426 132.946C220.988 135.043 223.136 136.29 225.224 135.73C227.312 135.171 228.549 133.017 227.987 130.92Z" fill="#0068D3"/>
<path d="M222.687 139.869C222.153 137.877 220.112 136.693 218.129 137.225C216.145 137.756 214.97 139.802 215.504 141.794C216.037 143.786 218.078 144.97 220.062 144.439C222.045 143.907 223.22 141.861 222.687 139.869Z" fill="#0068D3"/>
<path d="M217.059 149.11C216.581 147.327 214.755 146.268 212.98 146.743C211.206 147.219 210.154 149.049 210.632 150.832C211.109 152.614 212.935 153.674 214.71 153.198C216.485 152.722 217.536 150.892 217.059 149.11Z" fill="#0068D3"/>
<path d="M211.38 158.16C210.986 156.692 209.483 155.82 208.021 156.211C206.56 156.603 205.694 158.11 206.087 159.578C206.48 161.046 207.984 161.919 209.446 161.527C210.907 161.135 211.773 159.628 211.38 158.16Z" fill="#0068D3"/>
<path d="M205.701 167.21C205.392 166.057 204.21 165.371 203.062 165.679C201.914 165.987 201.233 167.171 201.542 168.325C201.851 169.478 203.033 170.163 204.181 169.856C205.33 169.548 206.01 168.364 205.701 167.21Z" fill="#0068D3"/>
<path d="M199.695 176.552C199.498 175.818 198.746 175.382 198.016 175.577C197.285 175.773 196.852 176.527 197.048 177.261C197.245 177.995 197.997 178.431 198.728 178.235C199.459 178.04 199.891 177.286 199.695 176.552Z" fill="#0068D3"/>
<path d="M237.104 136.21C236.542 134.113 234.394 132.866 232.306 133.426C230.218 133.985 228.981 136.139 229.542 138.236C230.104 140.333 232.252 141.579 234.34 141.02C236.428 140.46 237.665 138.307 237.104 136.21Z" fill="#0068D3"/>
<path d="M231.425 145.26C230.891 143.268 228.85 142.084 226.867 142.615C224.883 143.147 223.708 145.193 224.242 147.185C224.775 149.177 226.816 150.361 228.8 149.83C230.783 149.298 231.958 147.252 231.425 145.26Z" fill="#0068D3"/>
<path d="M226.175 154.399C225.697 152.617 223.871 151.557 222.096 152.033C220.322 152.508 219.27 154.339 219.748 156.121C220.225 157.904 222.051 158.963 223.826 158.488C225.601 158.012 226.652 156.182 226.175 154.399Z" fill="#0068D3"/>
<path d="M243.978 164.89C243.528 163.212 241.81 162.215 240.14 162.663C238.469 163.11 237.48 164.833 237.929 166.51C238.379 168.188 240.097 169.185 241.767 168.738C243.438 168.29 244.427 166.567 243.978 164.89Z" fill="#0068D3"/>
<path d="M220.496 163.449C220.103 161.982 218.599 161.109 217.137 161.501C215.676 161.892 214.81 163.4 215.203 164.868C215.596 166.336 217.1 167.208 218.562 166.816C220.023 166.425 220.889 164.917 220.496 163.449Z" fill="#0068D3"/>
<path d="M238.299 173.94C237.934 172.577 236.538 171.767 235.18 172.13C233.823 172.494 233.019 173.894 233.384 175.257C233.75 176.62 235.146 177.43 236.503 177.067C237.86 176.703 238.664 175.303 238.299 173.94Z" fill="#0068D3"/>
<path d="M214.817 172.5C214.508 171.347 213.326 170.661 212.178 170.969C211.03 171.276 210.349 172.461 210.658 173.614C210.967 174.768 212.149 175.453 213.297 175.145C214.446 174.838 215.126 173.653 214.817 172.5Z" fill="#0068D3"/>
<path d="M232.62 182.99C232.339 181.942 231.265 181.319 230.221 181.598C229.177 181.878 228.559 182.955 228.84 184.003C229.121 185.052 230.195 185.675 231.239 185.395C232.283 185.116 232.901 184.039 232.62 182.99Z" fill="#0068D3"/>
<path d="M208.811 181.841C208.614 181.107 207.862 180.671 207.132 180.867C206.401 181.063 205.968 181.817 206.165 182.55C206.361 183.284 207.113 183.721 207.844 183.525C208.575 183.329 209.008 182.575 208.811 181.841Z" fill="#0068D3"/>
<path d="M226.614 192.332C226.446 191.703 225.801 191.329 225.175 191.497C224.548 191.665 224.177 192.311 224.346 192.94C224.514 193.569 225.159 193.943 225.785 193.775C226.412 193.607 226.783 192.961 226.614 192.332Z" fill="#0068D3"/>
<path d="M240.541 150.55C240.007 148.558 237.966 147.373 235.983 147.905C233.999 148.436 232.824 150.482 233.358 152.474C233.892 154.467 235.932 155.651 237.916 155.119C239.899 154.588 241.075 152.542 240.541 150.55Z" fill="#0068D3"/>
<path d="M234.964 159.98C234.514 158.302 232.796 157.305 231.125 157.753C229.455 158.2 228.465 159.923 228.915 161.601C229.364 163.278 231.083 164.275 232.753 163.828C234.423 163.38 235.413 161.657 234.964 159.98Z" fill="#0068D3"/>
<path d="M229.285 169.03C228.919 167.667 227.523 166.857 226.166 167.221C224.809 167.584 224.005 168.984 224.37 170.347C224.735 171.71 226.132 172.52 227.489 172.157C228.846 171.793 229.65 170.393 229.285 169.03Z" fill="#0068D3"/>
<path d="M223.555 177.891C223.246 176.737 222.064 176.052 220.916 176.36C219.768 176.667 219.087 177.852 219.396 179.005C219.705 180.158 220.887 180.844 222.035 180.536C223.184 180.229 223.864 179.044 223.555 177.891Z" fill="#0068D3"/>
<path d="M217.978 187.321C217.753 186.482 216.894 185.983 216.059 186.207C215.223 186.431 214.729 187.292 214.953 188.131C215.178 188.97 216.037 189.469 216.873 189.245C217.708 189.021 218.203 188.16 217.978 187.321Z" fill="#0068D3"/>
</g>
<ellipse cx="276.612" cy="139.557" rx="38.7316" ry="103.66" transform="rotate(-15 276.612 139.557)" fill="#CCE2FF"/>
<mask id="mask2_43_3059" style="mask-type:alpha" maskUnits="userSpaceOnUse" x="230" y="38" width="93" height="203">
<ellipse cx="276.612" cy="139.557" rx="38.7316" ry="103.66" transform="rotate(-15 276.612 139.557)" fill="#9AFBD7"/>
</mask>
<g mask="url(#mask2_43_3059)">
<path d="M251.257 184.776C251.563 185.916 250.885 187.089 249.744 187.395C248.602 187.7 247.429 187.024 247.123 185.883C246.818 184.743 247.495 183.57 248.637 183.265C249.779 182.959 250.952 183.635 251.257 184.776Z" fill="#66A9FF" fill-opacity="0.7"/>
<path d="M259.671 191.374C259.977 192.515 259.299 193.687 258.158 193.993C257.016 194.299 255.843 193.622 255.538 192.482C255.232 191.341 255.91 190.169 257.051 189.863C258.193 189.557 259.366 190.234 259.671 191.374Z" fill="#66A9FF" fill-opacity="0.7"/>
<path d="M276.061 178.13C276.366 179.27 275.689 180.443 274.547 180.748C273.406 181.054 272.233 180.378 271.927 179.237C271.621 178.097 272.299 176.924 273.441 176.618C274.582 176.313 275.755 176.989 276.061 178.13Z" fill="#66A9FF" fill-opacity="0.7"/>
<path d="M284.475 184.728C284.781 185.869 284.103 187.041 282.961 187.347C281.82 187.653 280.647 186.976 280.341 185.836C280.036 184.695 280.713 183.523 281.855 183.217C282.996 182.911 284.169 183.588 284.475 184.728Z" fill="#66A9FF" fill-opacity="0.7"/>
<path d="M263.659 181.453C263.965 182.593 263.287 183.766 262.145 184.071C261.004 184.377 259.831 183.701 259.525 182.56C259.22 181.42 259.897 180.247 261.039 179.941C262.18 179.636 263.354 180.312 263.659 181.453Z" fill="#66A9FF" fill-opacity="0.7"/>
<path d="M272.073 188.051C272.379 189.192 271.701 190.364 270.56 190.67C269.418 190.976 268.245 190.299 267.939 189.159C267.634 188.018 268.311 186.846 269.453 186.54C270.595 186.234 271.768 186.911 272.073 188.051Z" fill="#66A9FF" fill-opacity="0.7"/>
<path d="M300.864 171.483C301.17 172.624 300.492 173.796 299.351 174.102C298.209 174.408 297.036 173.732 296.731 172.591C296.425 171.451 297.103 170.278 298.244 169.972C299.386 169.666 300.559 170.343 300.864 171.483Z" fill="#66A9FF" fill-opacity="0.7"/>
<path d="M309.279 178.082C309.584 179.222 308.907 180.395 307.765 180.701C306.623 181.007 305.45 180.33 305.145 179.19C304.839 178.049 305.517 176.877 306.658 176.571C307.8 176.265 308.973 176.942 309.279 178.082Z" fill="#66A9FF" fill-opacity="0.7"/>
<path d="M288.463 174.807C288.768 175.947 288.091 177.119 286.949 177.425C285.807 177.731 284.634 177.055 284.329 175.914C284.023 174.774 284.701 173.601 285.842 173.295C286.984 172.989 288.157 173.666 288.463 174.807Z" fill="#66A9FF" fill-opacity="0.7"/>
<path d="M296.877 181.405C297.182 182.545 296.505 183.718 295.363 184.024C294.222 184.33 293.049 183.653 292.743 182.513C292.437 181.372 293.115 180.2 294.257 179.894C295.398 179.588 296.571 180.265 296.877 181.405Z" fill="#66A9FF" fill-opacity="0.7"/>
<path d="M325.668 164.837C325.974 165.978 325.296 167.15 324.154 167.456C323.013 167.762 321.84 167.086 321.534 165.945C321.229 164.805 321.906 163.632 323.048 163.326C324.189 163.02 325.363 163.697 325.668 164.837Z" fill="#66A9FF" fill-opacity="0.7"/>
<path d="M313.266 168.16C313.572 169.301 312.894 170.473 311.753 170.779C310.611 171.085 309.438 170.409 309.132 169.268C308.827 168.128 309.504 166.955 310.646 166.649C311.788 166.343 312.961 167.02 313.266 168.16Z" fill="#66A9FF" fill-opacity="0.7"/>
<path d="M321.68 174.759C321.986 175.899 321.308 177.072 320.167 177.378C319.025 177.684 317.852 177.007 317.547 175.867C317.241 174.726 317.919 173.554 319.06 173.248C320.202 172.942 321.375 173.618 321.68 174.759Z" fill="#66A9FF" fill-opacity="0.7"/>
<path d="M255.684 201.296C255.989 202.436 255.312 203.609 254.17 203.915C253.029 204.22 251.856 203.544 251.55 202.403C251.244 201.263 251.922 200.09 253.064 199.785C254.205 199.479 255.378 200.155 255.684 201.296Z" fill="#66A9FF" fill-opacity="0.7"/>
<path d="M264.098 207.894C264.404 209.035 263.726 210.207 262.584 210.513C261.443 210.819 260.27 210.142 259.964 209.002C259.658 207.861 260.336 206.689 261.478 206.383C262.619 206.077 263.792 206.754 264.098 207.894Z" fill="#66A9FF" fill-opacity="0.7"/>
<path d="M280.487 194.65C280.793 195.79 280.115 196.963 278.974 197.268C277.832 197.574 276.659 196.898 276.354 195.757C276.048 194.617 276.726 193.444 277.867 193.138C279.009 192.833 280.182 193.509 280.487 194.65Z" fill="#66A9FF" fill-opacity="0.7"/>
<path d="M288.902 201.248C289.207 202.389 288.53 203.561 287.388 203.867C286.246 204.173 285.073 203.496 284.768 202.356C284.462 201.215 285.14 200.043 286.281 199.737C287.423 199.431 288.596 200.108 288.902 201.248Z" fill="#66A9FF" fill-opacity="0.7"/>
<path d="M268.086 197.973C268.391 199.113 267.714 200.286 266.572 200.592C265.43 200.897 264.257 200.221 263.952 199.08C263.646 197.94 264.324 196.767 265.465 196.462C266.607 196.156 267.78 196.832 268.086 197.973Z" fill="#66A9FF" fill-opacity="0.7"/>
<path d="M276.5 204.571C276.805 205.712 276.128 206.884 274.986 207.19C273.845 207.496 272.671 206.819 272.366 205.679C272.06 204.538 272.738 203.366 273.88 203.06C275.021 202.754 276.194 203.431 276.5 204.571Z" fill="#66A9FF" fill-opacity="0.7"/>
<path d="M305.291 188.004C305.597 189.144 304.919 190.317 303.777 190.622C302.636 190.928 301.463 190.252 301.157 189.111C300.852 187.971 301.529 186.798 302.671 186.492C303.812 186.186 304.985 186.863 305.291 188.004Z" fill="#66A9FF" fill-opacity="0.7"/>
<path d="M313.705 194.602C314.011 195.743 313.333 196.915 312.192 197.221C311.05 197.527 309.877 196.85 309.571 195.71C309.266 194.569 309.943 193.397 311.085 193.091C312.226 192.785 313.4 193.462 313.705 194.602Z" fill="#66A9FF" fill-opacity="0.7"/>
<path d="M292.889 191.327C293.195 192.467 292.517 193.64 291.376 193.945C290.234 194.251 289.061 193.575 288.755 192.434C288.45 191.294 289.127 190.121 290.269 189.815C291.411 189.51 292.584 190.186 292.889 191.327Z" fill="#66A9FF" fill-opacity="0.7"/>
<path d="M301.303 197.925C301.609 199.066 300.931 200.238 299.79 200.544C298.648 200.85 297.475 200.173 297.169 199.033C296.864 197.892 297.542 196.72 298.683 196.414C299.825 196.108 300.998 196.785 301.303 197.925Z" fill="#66A9FF" fill-opacity="0.7"/>
<path d="M317.693 184.68C317.998 185.821 317.321 186.993 316.179 187.299C315.038 187.605 313.864 186.929 313.559 185.788C313.253 184.648 313.931 183.475 315.073 183.169C316.214 182.863 317.387 183.54 317.693 184.68Z" fill="#66A9FF" fill-opacity="0.7"/>
<path d="M260.11 217.816C260.416 218.956 259.738 220.129 258.597 220.435C257.455 220.741 256.282 220.064 255.976 218.924C255.671 217.783 256.349 216.611 257.49 216.305C258.632 215.999 259.805 216.675 260.11 217.816Z" fill="#66A9FF" fill-opacity="0.7"/>
<path d="M268.525 224.414C268.83 225.555 268.152 226.727 267.011 227.033C265.869 227.339 264.696 226.663 264.391 225.522C264.085 224.382 264.763 223.209 265.904 222.903C267.046 222.597 268.219 223.274 268.525 224.414Z" fill="#66A9FF" fill-opacity="0.7"/>
<path d="M284.914 211.17C285.22 212.31 284.542 213.483 283.4 213.789C282.259 214.094 281.086 213.418 280.78 212.277C280.474 211.137 281.152 209.964 282.294 209.659C283.435 209.353 284.608 210.029 284.914 211.17Z" fill="#66A9FF" fill-opacity="0.7"/>
<path d="M293.328 217.768C293.634 218.909 292.956 220.081 291.815 220.387C290.673 220.693 289.5 220.016 289.194 218.876C288.889 217.735 289.566 216.563 290.708 216.257C291.849 215.951 293.023 216.628 293.328 217.768Z" fill="#66A9FF" fill-opacity="0.7"/>
<path d="M272.512 214.493C272.818 215.633 272.14 216.806 270.999 217.112C269.857 217.418 268.684 216.741 268.378 215.6C268.073 214.46 268.75 213.287 269.892 212.982C271.033 212.676 272.207 213.352 272.512 214.493Z" fill="#66A9FF" fill-opacity="0.7"/>
<path d="M280.926 221.091C281.232 222.232 280.554 223.404 279.413 223.71C278.271 224.016 277.098 223.339 276.792 222.199C276.487 221.059 277.165 219.886 278.306 219.58C279.448 219.274 280.621 219.951 280.926 221.091Z" fill="#66A9FF" fill-opacity="0.7"/>
<path d="M309.718 204.524C310.023 205.664 309.345 206.837 308.204 207.142C307.062 207.448 305.889 206.772 305.584 205.631C305.278 204.491 305.956 203.318 307.097 203.012C308.239 202.707 309.412 203.383 309.718 204.524Z" fill="#66A9FF" fill-opacity="0.7"/>
<path d="M318.132 211.122C318.437 212.263 317.76 213.435 316.618 213.741C315.477 214.047 314.303 213.37 313.998 212.23C313.692 211.089 314.37 209.917 315.511 209.611C316.653 209.305 317.826 209.982 318.132 211.122Z" fill="#66A9FF" fill-opacity="0.7"/>
<path d="M297.316 207.847C297.621 208.987 296.944 210.16 295.802 210.466C294.661 210.771 293.487 210.095 293.182 208.954C292.876 207.814 293.554 206.641 294.695 206.336C295.837 206.03 297.01 206.706 297.316 207.847Z" fill="#66A9FF" fill-opacity="0.7"/>
<path d="M305.73 214.445C306.036 215.586 305.358 216.758 304.216 217.064C303.075 217.37 301.902 216.693 301.596 215.553C301.29 214.412 301.968 213.24 303.11 212.934C304.251 212.628 305.424 213.305 305.73 214.445Z" fill="#66A9FF" fill-opacity="0.7"/>
<path d="M322.119 201.201C322.425 202.341 321.747 203.514 320.606 203.819C319.464 204.125 318.291 203.449 317.985 202.308C317.68 201.168 318.358 199.995 319.499 199.689C320.641 199.384 321.814 200.06 322.119 201.201Z" fill="#66A9FF" fill-opacity="0.7"/>
<path d="M289.341 227.69C289.646 228.83 288.968 230.003 287.827 230.309C286.685 230.615 285.512 229.938 285.207 228.797C284.901 227.657 285.579 226.485 286.72 226.179C287.862 225.873 289.035 226.549 289.341 227.69Z" fill="#66A9FF" fill-opacity="0.7"/>
<path d="M297.755 234.288C298.06 235.429 297.383 236.601 296.241 236.907C295.099 237.213 293.926 236.536 293.621 235.396C293.315 234.256 293.993 233.083 295.134 232.777C296.276 232.471 297.449 233.148 297.755 234.288Z" fill="#66A9FF" fill-opacity="0.7"/>
<path d="M276.939 231.013C277.244 232.153 276.567 233.326 275.425 233.632C274.284 233.938 273.11 233.261 272.805 232.121C272.499 230.98 273.177 229.808 274.318 229.502C275.46 229.196 276.633 229.872 276.939 231.013Z" fill="#66A9FF" fill-opacity="0.7"/>
<path d="M285.353 237.611C285.658 238.752 284.981 239.924 283.839 240.23C282.698 240.536 281.525 239.86 281.219 238.719C280.913 237.579 281.591 236.406 282.733 236.1C283.874 235.794 285.047 236.471 285.353 237.611Z" fill="#66A9FF" fill-opacity="0.7"/>
<path d="M314.144 221.044C314.45 222.184 313.772 223.357 312.63 223.663C311.489 223.968 310.316 223.292 310.01 222.151C309.705 221.011 310.382 219.838 311.524 219.533C312.665 219.227 313.839 219.903 314.144 221.044Z" fill="#66A9FF" fill-opacity="0.7"/>
<path d="M301.742 224.367C302.048 225.507 301.37 226.68 300.229 226.986C299.087 227.291 297.914 226.615 297.608 225.474C297.303 224.334 297.98 223.161 299.122 222.856C300.264 222.55 301.437 223.226 301.742 224.367Z" fill="#66A9FF" fill-opacity="0.7"/>
<path d="M310.156 230.965C310.462 232.106 309.784 233.278 308.643 233.584C307.501 233.89 306.328 233.213 306.023 232.073C305.717 230.932 306.395 229.76 307.536 229.454C308.678 229.148 309.851 229.825 310.156 230.965Z" fill="#66A9FF" fill-opacity="0.7"/>
<path d="M233.551 118.695C233.857 119.836 233.179 121.008 232.037 121.314C230.896 121.62 229.723 120.944 229.417 119.803C229.112 118.663 229.789 117.49 230.931 117.184C232.072 116.878 233.246 117.555 233.551 118.695Z" fill="#66A9FF" fill-opacity="0.7"/>
<path d="M241.965 125.294C242.271 126.434 241.593 127.607 240.452 127.913C239.31 128.219 238.137 127.542 237.831 126.402C237.526 125.261 238.203 124.089 239.345 123.783C240.487 123.477 241.66 124.153 241.965 125.294Z" fill="#66A9FF" fill-opacity="0.7"/>
<path d="M258.355 112.049C258.66 113.19 257.983 114.362 256.841 114.668C255.7 114.974 254.526 114.297 254.221 113.157C253.915 112.016 254.593 110.844 255.734 110.538C256.876 110.232 258.049 110.909 258.355 112.049Z" fill="#66A9FF" fill-opacity="0.7"/>
<path d="M266.769 118.648C267.074 119.788 266.397 120.961 265.255 121.267C264.114 121.572 262.941 120.896 262.635 119.755C262.329 118.615 263.007 117.442 264.149 117.137C265.29 116.831 266.463 117.507 266.769 118.648Z" fill="#66A9FF" fill-opacity="0.7"/>
<path d="M245.953 115.372C246.259 116.513 245.581 117.685 244.439 117.991C243.298 118.297 242.125 117.62 241.819 116.48C241.513 115.34 242.191 114.167 243.333 113.861C244.474 113.555 245.647 114.232 245.953 115.372Z" fill="#66A9FF" fill-opacity="0.7"/>
<path d="M254.367 121.971C254.673 123.111 253.995 124.284 252.853 124.59C251.712 124.896 250.539 124.219 250.233 123.079C249.928 121.938 250.605 120.766 251.747 120.46C252.888 120.154 254.062 120.83 254.367 121.971Z" fill="#66A9FF" fill-opacity="0.7"/>
<path d="M283.158 105.403C283.464 106.544 282.786 107.716 281.645 108.022C280.503 108.328 279.33 107.651 279.024 106.511C278.719 105.37 279.396 104.198 280.538 103.892C281.68 103.586 282.853 104.263 283.158 105.403Z" fill="#66A9FF" fill-opacity="0.7"/>
<path d="M291.573 112.002C291.878 113.142 291.2 114.315 290.059 114.621C288.917 114.926 287.744 114.25 287.439 113.109C287.133 111.969 287.811 110.796 288.952 110.49C290.094 110.185 291.267 110.861 291.573 112.002Z" fill="#66A9FF" fill-opacity="0.7"/>
<path d="M270.757 108.726C271.062 109.867 270.384 111.039 269.243 111.345C268.101 111.651 266.928 110.974 266.623 109.834C266.317 108.693 266.995 107.521 268.136 107.215C269.278 106.909 270.451 107.586 270.757 108.726Z" fill="#66A9FF" fill-opacity="0.7"/>
<path d="M279.171 115.325C279.476 116.465 278.799 117.638 277.657 117.944C276.515 118.249 275.342 117.573 275.037 116.432C274.731 115.292 275.409 114.119 276.55 113.814C277.692 113.508 278.865 114.184 279.171 115.325Z" fill="#66A9FF" fill-opacity="0.7"/>
<path d="M307.962 98.757C308.268 99.8975 307.59 101.07 306.448 101.376C305.307 101.682 304.134 101.005 303.828 99.8647C303.522 98.7243 304.2 97.5518 305.342 97.2459C306.483 96.94 307.656 97.6166 307.962 98.757Z" fill="#66A9FF" fill-opacity="0.7"/>
<path d="M295.56 102.08C295.866 103.221 295.188 104.393 294.046 104.699C292.905 105.005 291.732 104.328 291.426 103.188C291.121 102.047 291.798 100.875 292.94 100.569C294.081 100.263 295.255 100.94 295.56 102.08Z" fill="#66A9FF" fill-opacity="0.7"/>
<path d="M303.974 108.679C304.28 109.819 303.602 110.992 302.461 111.297C301.319 111.603 300.146 110.927 299.84 109.786C299.535 108.646 300.212 107.473 301.354 107.167C302.496 106.862 303.669 107.538 303.974 108.679Z" fill="#66A9FF" fill-opacity="0.7"/>
<path d="M237.978 135.215C238.283 136.356 237.606 137.528 236.464 137.834C235.322 138.14 234.149 137.464 233.844 136.323C233.538 135.183 234.216 134.01 235.357 133.704C236.499 133.398 237.672 134.075 237.978 135.215Z" fill="#66A9FF" fill-opacity="0.7"/>
<path d="M246.392 141.814C246.697 142.954 246.02 144.127 244.878 144.433C243.737 144.739 242.563 144.062 242.258 142.922C241.952 141.781 242.63 140.609 243.772 140.303C244.913 139.997 246.086 140.673 246.392 141.814Z" fill="#66A9FF" fill-opacity="0.7"/>
<path d="M262.781 128.569C263.087 129.71 262.409 130.882 261.268 131.188C260.126 131.494 258.953 130.817 258.647 129.677C258.342 128.537 259.019 127.364 260.161 127.058C261.303 126.752 262.476 127.429 262.781 128.569Z" fill="#66A9FF" fill-opacity="0.7"/>
<path d="M271.195 135.168C271.501 136.308 270.823 137.481 269.682 137.787C268.54 138.093 267.367 137.416 267.062 136.276C266.756 135.135 267.434 133.963 268.575 133.657C269.717 133.351 270.89 134.027 271.195 135.168Z" fill="#66A9FF" fill-opacity="0.7"/>
<path d="M250.379 131.892C250.685 133.033 250.007 134.205 248.866 134.511C247.724 134.817 246.551 134.141 246.246 133C245.94 131.86 246.618 130.687 247.759 130.381C248.901 130.075 250.074 130.752 250.379 131.892Z" fill="#66A9FF" fill-opacity="0.7"/>
<path d="M258.794 138.491C259.099 139.631 258.422 140.804 257.28 141.11C256.138 141.416 254.965 140.739 254.66 139.599C254.354 138.458 255.032 137.286 256.173 136.98C257.315 136.674 258.488 137.35 258.794 138.491Z" fill="#66A9FF" fill-opacity="0.7"/>
<path d="M287.585 121.923C287.89 123.064 287.213 124.236 286.071 124.542C284.93 124.848 283.757 124.171 283.451 123.031C283.145 121.89 283.823 120.718 284.965 120.412C286.106 120.106 287.279 120.783 287.585 121.923Z" fill="#66A9FF" fill-opacity="0.7"/>
<path d="M295.999 128.522C296.305 129.662 295.627 130.835 294.485 131.141C293.344 131.446 292.171 130.77 291.865 129.629C291.56 128.489 292.237 127.316 293.379 127.011C294.52 126.705 295.693 127.381 295.999 128.522Z" fill="#66A9FF" fill-opacity="0.7"/>
<path d="M275.183 125.246C275.489 126.387 274.811 127.559 273.669 127.865C272.528 128.171 271.355 127.494 271.049 126.354C270.744 125.213 271.421 124.041 272.563 123.735C273.704 123.429 274.877 124.106 275.183 125.246Z" fill="#66A9FF" fill-opacity="0.7"/>
<path d="M283.597 131.845C283.903 132.985 283.225 134.158 282.084 134.464C280.942 134.77 279.769 134.093 279.463 132.952C279.158 131.812 279.835 130.64 280.977 130.334C282.119 130.028 283.292 130.704 283.597 131.845Z" fill="#66A9FF" fill-opacity="0.7"/>
<path d="M312.388 115.277C312.694 116.418 312.016 117.59 310.875 117.896C309.733 118.202 308.56 117.525 308.255 116.385C307.949 115.244 308.627 114.072 309.768 113.766C310.91 113.46 312.083 114.137 312.388 115.277Z" fill="#66A9FF" fill-opacity="0.7"/>
<path d="M299.987 118.6C300.292 119.741 299.615 120.913 298.473 121.219C297.331 121.525 296.158 120.848 295.853 119.708C295.547 118.567 296.225 117.395 297.366 117.089C298.508 116.783 299.681 117.46 299.987 118.6Z" fill="#66A9FF" fill-opacity="0.7"/>
<path d="M308.401 125.199C308.706 126.339 308.029 127.512 306.887 127.818C305.746 128.123 304.572 127.447 304.267 126.306C303.961 125.166 304.639 123.993 305.781 123.688C306.922 123.382 308.095 124.058 308.401 125.199Z" fill="#66A9FF" fill-opacity="0.7"/>
<path d="M242.404 151.736C242.71 152.876 242.032 154.048 240.891 154.354C239.749 154.66 238.576 153.984 238.27 152.843C237.965 151.703 238.642 150.53 239.784 150.224C240.925 149.918 242.099 150.595 242.404 151.736Z" fill="#66A9FF" fill-opacity="0.7"/>
<path d="M250.818 158.334C251.124 159.474 250.446 160.647 249.305 160.953C248.163 161.259 246.99 160.582 246.684 159.442C246.379 158.301 247.057 157.129 248.198 156.823C249.34 156.517 250.513 157.194 250.818 158.334Z" fill="#66A9FF" fill-opacity="0.7"/>
<path d="M267.208 145.089C267.513 146.23 266.836 147.402 265.694 147.708C264.553 148.014 263.379 147.338 263.074 146.197C262.768 145.057 263.446 143.884 264.588 143.578C265.729 143.272 266.902 143.949 267.208 145.089Z" fill="#66A9FF" fill-opacity="0.7"/>
<path d="M275.622 151.688C275.928 152.828 275.25 154.001 274.108 154.307C272.967 154.613 271.794 153.936 271.488 152.796C271.182 151.655 271.86 150.483 273.002 150.177C274.143 149.871 275.316 150.547 275.622 151.688Z" fill="#66A9FF" fill-opacity="0.7"/>
<path d="M254.806 148.412C255.112 149.553 254.434 150.725 253.292 151.031C252.151 151.337 250.978 150.661 250.672 149.52C250.366 148.38 251.044 147.207 252.186 146.901C253.327 146.595 254.5 147.272 254.806 148.412Z" fill="#66A9FF" fill-opacity="0.7"/>
<path d="M263.22 155.011C263.526 156.151 262.848 157.324 261.707 157.63C260.565 157.936 259.392 157.259 259.086 156.119C258.781 154.978 259.458 153.806 260.6 153.5C261.741 153.194 262.915 153.87 263.22 155.011Z" fill="#66A9FF" fill-opacity="0.7"/>
<path d="M292.011 138.443C292.317 139.584 291.639 140.756 290.498 141.062C289.356 141.368 288.183 140.691 287.877 139.551C287.572 138.411 288.25 137.238 289.391 136.932C290.533 136.626 291.706 137.303 292.011 138.443Z" fill="#66A9FF" fill-opacity="0.7"/>
<path d="M300.426 145.042C300.731 146.182 300.053 147.355 298.912 147.661C297.77 147.967 296.597 147.29 296.292 146.15C295.986 145.009 296.664 143.837 297.805 143.531C298.947 143.225 300.12 143.901 300.426 145.042Z" fill="#66A9FF" fill-opacity="0.7"/>
<path d="M279.61 141.766C279.915 142.907 279.238 144.079 278.096 144.385C276.954 144.691 275.781 144.015 275.476 142.874C275.17 141.734 275.848 140.561 276.989 140.255C278.131 139.949 279.304 140.626 279.61 141.766Z" fill="#66A9FF" fill-opacity="0.7"/>
<path d="M288.024 148.365C288.329 149.505 287.652 150.678 286.51 150.984C285.369 151.29 284.195 150.613 283.89 149.473C283.584 148.332 284.262 147.16 285.404 146.854C286.545 146.548 287.718 147.224 288.024 148.365Z" fill="#66A9FF" fill-opacity="0.7"/>
<path d="M316.815 131.797C317.121 132.938 316.443 134.11 315.301 134.416C314.16 134.722 312.987 134.045 312.681 132.905C312.375 131.764 313.053 130.592 314.195 130.286C315.336 129.98 316.509 130.657 316.815 131.797Z" fill="#66A9FF" fill-opacity="0.7"/>
<path d="M304.413 135.12C304.719 136.261 304.041 137.433 302.9 137.739C301.758 138.045 300.585 137.368 300.279 136.228C299.974 135.087 300.651 133.915 301.793 133.609C302.934 133.303 304.108 133.98 304.413 135.12Z" fill="#66A9FF" fill-opacity="0.7"/>
<path d="M312.827 141.719C313.133 142.859 312.455 144.032 311.314 144.338C310.172 144.644 308.999 143.967 308.693 142.826C308.388 141.686 309.066 140.513 310.207 140.208C311.349 139.902 312.522 140.578 312.827 141.719Z" fill="#66A9FF" fill-opacity="0.7"/>
<path d="M246.831 168.256C247.136 169.396 246.459 170.569 245.317 170.874C244.176 171.18 243.002 170.504 242.697 169.363C242.391 168.223 243.069 167.05 244.21 166.744C245.352 166.439 246.525 167.115 246.831 168.256Z" fill="#66A9FF" fill-opacity="0.7"/>
<path d="M255.245 174.854C255.551 175.995 254.873 177.167 253.731 177.473C252.59 177.779 251.417 177.102 251.111 175.962C250.805 174.821 251.483 173.649 252.625 173.343C253.766 173.037 254.939 173.714 255.245 174.854Z" fill="#66A9FF" fill-opacity="0.7"/>
<path d="M271.634 161.609C271.94 162.75 271.262 163.922 270.121 164.228C268.979 164.534 267.806 163.858 267.5 162.717C267.195 161.577 267.873 160.404 269.014 160.098C270.156 159.792 271.329 160.469 271.634 161.609Z" fill="#66A9FF" fill-opacity="0.7"/>
<path d="M280.049 168.208C280.354 169.348 279.676 170.521 278.535 170.827C277.393 171.133 276.22 170.456 275.915 169.316C275.609 168.175 276.287 167.003 277.428 166.697C278.57 166.391 279.743 167.068 280.049 168.208Z" fill="#66A9FF" fill-opacity="0.7"/>
<path d="M259.233 164.933C259.538 166.073 258.86 167.246 257.719 167.551C256.577 167.857 255.404 167.181 255.099 166.04C254.793 164.9 255.471 163.727 256.612 163.421C257.754 163.115 258.927 163.792 259.233 164.933Z" fill="#66A9FF" fill-opacity="0.7"/>
<path d="M267.647 171.531C267.952 172.672 267.275 173.844 266.133 174.15C264.992 174.456 263.818 173.779 263.513 172.639C263.207 171.498 263.885 170.326 265.026 170.02C266.168 169.714 267.341 170.391 267.647 171.531Z" fill="#66A9FF" fill-opacity="0.7"/>
<path d="M296.438 154.963C296.744 156.104 296.066 157.276 294.924 157.582C293.783 157.888 292.61 157.212 292.304 156.071C291.998 154.931 292.676 153.758 293.818 153.452C294.959 153.146 296.132 153.823 296.438 154.963Z" fill="#66A9FF" fill-opacity="0.7"/>
<path d="M304.852 161.562C305.158 162.702 304.48 163.875 303.338 164.181C302.197 164.487 301.024 163.81 300.718 162.67C300.413 161.529 301.09 160.357 302.232 160.051C303.373 159.745 304.547 160.421 304.852 161.562Z" fill="#66A9FF" fill-opacity="0.7"/>
<path d="M284.036 158.286C284.342 159.427 283.664 160.599 282.523 160.905C281.381 161.211 280.208 160.535 279.902 159.394C279.597 158.254 280.274 157.081 281.416 156.775C282.557 156.469 283.731 157.146 284.036 158.286Z" fill="#66A9FF" fill-opacity="0.7"/>
<path d="M292.45 164.885C292.756 166.025 292.078 167.198 290.937 167.504C289.795 167.81 288.622 167.133 288.316 165.993C288.011 164.852 288.688 163.68 289.83 163.374C290.972 163.068 292.145 163.744 292.45 164.885Z" fill="#66A9FF" fill-opacity="0.7"/>
<path d="M321.242 148.317C321.547 149.458 320.869 150.63 319.728 150.936C318.586 151.242 317.413 150.565 317.108 149.425C316.802 148.284 317.48 147.112 318.621 146.806C319.763 146.5 320.936 147.177 321.242 148.317Z" fill="#66A9FF" fill-opacity="0.7"/>
<path d="M308.84 151.64C309.145 152.781 308.468 153.953 307.326 154.259C306.185 154.565 305.011 153.888 304.706 152.748C304.4 151.608 305.078 150.435 306.219 150.129C307.361 149.823 308.534 150.5 308.84 151.64Z" fill="#66A9FF" fill-opacity="0.7"/>
<path d="M317.254 158.239C317.56 159.379 316.882 160.552 315.74 160.858C314.599 161.164 313.426 160.487 313.12 159.347C312.814 158.206 313.492 157.034 314.634 156.728C315.775 156.422 316.948 157.098 317.254 158.239Z" fill="#66A9FF" fill-opacity="0.7"/>
<path d="M240.649 45.9689C240.954 47.1094 240.276 48.2819 239.135 48.5878C237.993 48.8937 236.82 48.2171 236.515 47.0766C236.209 45.9361 236.887 44.7636 238.028 44.4578C239.17 44.1519 240.343 44.8285 240.649 45.9689Z" fill="#66A9FF" fill-opacity="0.7"/>
<path d="M249.063 52.5674C249.368 53.7079 248.691 54.8804 247.549 55.1863C246.408 55.4922 245.234 54.8156 244.929 53.6751C244.623 52.5347 245.301 51.3622 246.442 51.0563C247.584 50.7504 248.757 51.427 249.063 52.5674Z" fill="#66A9FF" fill-opacity="0.7"/>
<path d="M236.661 55.8905C236.967 57.031 236.289 58.2035 235.147 58.5094C234.006 58.8152 232.833 58.1387 232.527 56.9982C232.221 55.8577 232.899 54.6852 234.041 54.3793C235.182 54.0735 236.355 54.75 236.661 55.8905Z" fill="#66A9FF" fill-opacity="0.7"/>
<path d="M265.452 39.3228C265.758 40.4633 265.08 41.6358 263.939 41.9417C262.797 42.2476 261.624 41.571 261.318 40.4305C261.013 39.29 261.69 38.1175 262.832 37.8117C263.973 37.5058 265.147 38.1824 265.452 39.3228Z" fill="#66A9FF" fill-opacity="0.7"/>
<path d="M273.866 45.9213C274.172 47.0618 273.494 48.2343 272.353 48.5402C271.211 48.8461 270.038 48.1695 269.732 47.029C269.427 45.8886 270.104 44.7161 271.246 44.4102C272.388 44.1043 273.561 44.7809 273.866 45.9213Z" fill="#66A9FF" fill-opacity="0.7"/>
<path d="M253.05 42.6459C253.356 43.7864 252.678 44.9589 251.537 45.2647C250.395 45.5706 249.222 44.894 248.916 43.7536C248.611 42.6131 249.289 41.4406 250.43 41.1347C251.572 40.8288 252.745 41.5054 253.05 42.6459Z" fill="#66A9FF" fill-opacity="0.7"/>
<path d="M261.465 49.2444C261.77 50.3849 261.092 51.5574 259.951 51.8632C258.809 52.1691 257.636 51.4926 257.331 50.3521C257.025 49.2116 257.703 48.0391 258.844 47.7332C259.986 47.4274 261.159 48.1039 261.465 49.2444Z" fill="#66A9FF" fill-opacity="0.7"/>
<path d="M228.686 75.7336C228.991 76.8741 228.314 78.0466 227.172 78.3525C226.03 78.6584 224.857 77.9818 224.552 76.8413C224.246 75.7008 224.924 74.5283 226.065 74.2225C227.207 73.9166 228.38 74.5932 228.686 75.7336Z" fill="#66A9FF" fill-opacity="0.7"/>
<path d="M245.075 62.489C245.381 63.6295 244.703 64.802 243.561 65.1079C242.42 65.4137 241.247 64.7372 240.941 63.5967C240.636 62.4562 241.313 61.2837 242.455 60.9778C243.596 60.672 244.77 61.3485 245.075 62.489Z" fill="#66A9FF" fill-opacity="0.7"/>
<path d="M253.489 69.0875C253.795 70.228 253.117 71.4005 251.976 71.7064C250.834 72.0123 249.661 71.3357 249.355 70.1952C249.05 69.0547 249.727 67.8822 250.869 67.5764C252.011 67.2705 253.184 67.9471 253.489 69.0875Z" fill="#66A9FF" fill-opacity="0.7"/>
<path d="M232.673 65.8121C232.979 66.9525 232.301 68.125 231.16 68.4309C230.018 68.7368 228.845 68.0602 228.539 66.9198C228.234 65.7793 228.911 64.6068 230.053 64.3009C231.195 63.995 232.368 64.6716 232.673 65.8121Z" fill="#66A9FF" fill-opacity="0.7"/>
<path d="M241.087 72.4106C241.393 73.5511 240.715 74.7236 239.574 75.0294C238.432 75.3353 237.259 74.6587 236.954 73.5183C236.648 72.3778 237.326 71.2053 238.467 70.8994C239.609 70.5935 240.782 71.2701 241.087 72.4106Z" fill="#66A9FF" fill-opacity="0.7"/>
<path d="M269.879 55.8429C270.184 56.9834 269.507 58.1559 268.365 58.4618C267.224 58.7676 266.05 58.0911 265.745 56.9506C265.439 55.8101 266.117 54.6376 267.258 54.3317C268.4 54.0259 269.573 54.7024 269.879 55.8429Z" fill="#66A9FF" fill-opacity="0.7"/>
<path d="M278.293 62.4414C278.598 63.5819 277.921 64.7544 276.779 65.0603C275.638 65.3662 274.465 64.6896 274.159 63.5491C273.853 62.4086 274.531 61.2361 275.673 60.9303C276.814 60.6244 277.987 61.301 278.293 62.4414Z" fill="#66A9FF" fill-opacity="0.7"/>
<path d="M257.477 59.166C257.782 60.3064 257.105 61.4789 255.963 61.7848C254.822 62.0907 253.649 61.4141 253.343 60.2736C253.037 59.1332 253.715 57.9607 254.857 57.6548C255.998 57.3489 257.171 58.0255 257.477 59.166Z" fill="#66A9FF" fill-opacity="0.7"/>
<path d="M265.891 65.7645C266.197 66.905 265.519 68.0774 264.377 68.3833C263.236 68.6892 262.063 68.0126 261.757 66.8722C261.452 65.7317 262.129 64.5592 263.271 64.2533C264.412 63.9474 265.585 64.624 265.891 65.7645Z" fill="#66A9FF" fill-opacity="0.7"/>
<path d="M224.698 85.6552C225.004 86.7957 224.326 87.9682 223.184 88.274C222.043 88.5799 220.87 87.9034 220.564 86.7629C220.259 85.6224 220.936 84.4499 222.078 84.144C223.219 83.8382 224.392 84.5147 224.698 85.6552Z" fill="#66A9FF" fill-opacity="0.7"/>
<path d="M233.112 92.2537C233.418 93.3942 232.74 94.5667 231.599 94.8726C230.457 95.1784 229.284 94.5019 228.978 93.3614C228.673 92.2209 229.35 91.0484 230.492 90.7425C231.633 90.4367 232.807 91.1132 233.112 92.2537Z" fill="#66A9FF" fill-opacity="0.7"/>
<path d="M249.502 79.0091C249.807 80.1496 249.13 81.3221 247.988 81.6279C246.846 81.9338 245.673 81.2573 245.368 80.1168C245.062 78.9763 245.74 77.8038 246.881 77.4979C248.023 77.192 249.196 77.8686 249.502 79.0091Z" fill="#66A9FF" fill-opacity="0.7"/>
<path d="M257.916 85.6076C258.221 86.7481 257.544 87.9206 256.402 88.2265C255.261 88.5323 254.087 87.8558 253.782 86.7153C253.476 85.5748 254.154 84.4023 255.296 84.0964C256.437 83.7906 257.61 84.4671 257.916 85.6076Z" fill="#66A9FF" fill-opacity="0.7"/>
<path d="M237.1 82.3321C237.405 83.4726 236.728 84.6451 235.586 84.951C234.445 85.2569 233.272 84.5803 232.966 83.4398C232.66 82.2994 233.338 81.1269 234.48 80.821C235.621 80.5151 236.794 81.1917 237.1 82.3321Z" fill="#66A9FF" fill-opacity="0.7"/>
<path d="M245.514 88.9307C245.82 90.0711 245.142 91.2436 244 91.5495C242.859 91.8554 241.686 91.1788 241.38 90.0383C241.074 88.8979 241.752 87.7254 242.894 87.4195C244.035 87.1136 245.208 87.7902 245.514 88.9307Z" fill="#66A9FF" fill-opacity="0.7"/>
<path d="M274.305 72.363C274.611 73.5035 273.933 74.676 272.792 74.9818C271.65 75.2877 270.477 74.6111 270.171 73.4707C269.866 72.3302 270.543 71.1577 271.685 70.8518C272.827 70.5459 274 71.2225 274.305 72.363Z" fill="#66A9FF" fill-opacity="0.7"/>
<path d="M282.719 78.9615C283.025 80.102 282.347 81.2745 281.206 81.5804C280.064 81.8862 278.891 81.2097 278.585 80.0692C278.28 78.9287 278.958 77.7562 280.099 77.4503C281.241 77.1445 282.414 77.821 282.719 78.9615Z" fill="#66A9FF" fill-opacity="0.7"/>
<path d="M261.903 75.686C262.209 76.8265 261.531 77.999 260.39 78.3049C259.248 78.6108 258.075 77.9342 257.77 76.7937C257.464 75.6533 258.142 74.4808 259.283 74.1749C260.425 73.869 261.598 74.5456 261.903 75.686Z" fill="#66A9FF" fill-opacity="0.7"/>
<path d="M270.318 82.2846C270.623 83.425 269.946 84.5975 268.804 84.9034C267.662 85.2093 266.489 84.5327 266.184 83.3922C265.878 82.2518 266.556 81.0793 267.697 80.7734C268.839 80.4675 270.012 81.1441 270.318 82.2846Z" fill="#66A9FF" fill-opacity="0.7"/>
<path d="M286.707 69.0399C287.013 70.1804 286.335 71.3529 285.193 71.6588C284.052 71.9647 282.879 71.2881 282.573 70.1476C282.268 69.0071 282.945 67.8346 284.087 67.5288C285.228 67.2229 286.401 67.8995 286.707 69.0399Z" fill="#66A9FF" fill-opacity="0.7"/>
<path d="M295.121 75.6385C295.427 76.7789 294.749 77.9514 293.608 78.2573C292.466 78.5632 291.293 77.8866 290.987 76.7461C290.682 75.6057 291.359 74.4332 292.501 74.1273C293.642 73.8214 294.816 74.498 295.121 75.6385Z" fill="#66A9FF" fill-opacity="0.7"/>
<path d="M229.125 102.175C229.43 103.316 228.752 104.488 227.611 104.794C226.469 105.1 225.296 104.423 224.991 103.283C224.685 102.142 225.363 100.97 226.504 100.664C227.646 100.358 228.819 101.035 229.125 102.175Z" fill="#66A9FF" fill-opacity="0.7"/>
<path d="M237.539 108.774C237.844 109.914 237.167 111.087 236.025 111.393C234.884 111.699 233.71 111.022 233.405 109.881C233.099 108.741 233.777 107.569 234.918 107.263C236.06 106.957 237.233 107.633 237.539 108.774Z" fill="#66A9FF" fill-opacity="0.7"/>
<path d="M253.928 95.5292C254.234 96.6696 253.556 97.8421 252.415 98.148C251.273 98.4539 250.1 97.7773 249.794 96.6369C249.489 95.4964 250.166 94.3239 251.308 94.018C252.449 93.7121 253.623 94.3887 253.928 95.5292Z" fill="#66A9FF" fill-opacity="0.7"/>
<path d="M262.342 102.128C262.648 103.268 261.97 104.441 260.829 104.747C259.687 105.052 258.514 104.376 258.208 103.235C257.903 102.095 258.581 100.922 259.722 100.617C260.864 100.311 262.037 100.987 262.342 102.128Z" fill="#66A9FF" fill-opacity="0.7"/>
<path d="M241.526 98.8522C241.832 99.9927 241.154 101.165 240.013 101.471C238.871 101.777 237.698 101.1 237.392 99.9599C237.087 98.8194 237.765 97.6469 238.906 97.3411C240.048 97.0352 241.221 97.7118 241.526 98.8522Z" fill="#66A9FF" fill-opacity="0.7"/>
<path d="M249.941 105.451C250.246 106.591 249.568 107.764 248.427 108.07C247.285 108.375 246.112 107.699 245.807 106.558C245.501 105.418 246.179 104.245 247.32 103.94C248.462 103.634 249.635 104.31 249.941 105.451Z" fill="#66A9FF" fill-opacity="0.7"/>
<path d="M278.732 88.8831C279.037 90.0235 278.36 91.196 277.218 91.5019C276.077 91.8078 274.903 91.1312 274.598 89.9908C274.292 88.8503 274.97 87.6778 276.112 87.3719C277.253 87.066 278.426 87.7426 278.732 88.8831Z" fill="#66A9FF" fill-opacity="0.7"/>
<path d="M287.146 95.4816C287.452 96.6221 286.774 97.7946 285.632 98.1004C284.491 98.4063 283.318 97.7297 283.012 96.5893C282.706 95.4488 283.384 94.2763 284.526 93.9704C285.667 93.6645 286.84 94.3411 287.146 95.4816Z" fill="#66A9FF" fill-opacity="0.7"/>
<path d="M266.33 92.2061C266.636 93.3466 265.958 94.5191 264.816 94.825C263.675 95.1309 262.502 94.4543 262.196 93.3138C261.89 92.1733 262.568 91.0008 263.71 90.6949C264.851 90.3891 266.024 91.0656 266.33 92.2061Z" fill="#66A9FF" fill-opacity="0.7"/>
<path d="M274.744 98.8046C275.05 99.9451 274.372 101.118 273.231 101.423C272.089 101.729 270.916 101.053 270.61 99.9123C270.305 98.7718 270.982 97.5993 272.124 97.2935C273.265 96.9876 274.439 97.6642 274.744 98.8046Z" fill="#66A9FF" fill-opacity="0.7"/>
<path d="M303.535 82.237C303.841 83.3774 303.163 84.5499 302.022 84.8558C300.88 85.1617 299.707 84.4851 299.401 83.3446C299.096 82.2042 299.774 81.0317 300.915 80.7258C302.057 80.4199 303.23 81.0965 303.535 82.237Z" fill="#66A9FF" fill-opacity="0.7"/>
<path d="M291.134 85.56C291.439 86.7005 290.761 87.873 289.62 88.1789C288.478 88.4847 287.305 87.8082 287 86.6677C286.694 85.5272 287.372 84.3547 288.513 84.0488C289.655 83.743 290.828 84.4195 291.134 85.56Z" fill="#66A9FF" fill-opacity="0.7"/>
<path d="M299.548 92.1585C299.853 93.299 299.176 94.4715 298.034 94.7774C296.893 95.0833 295.719 94.4067 295.414 93.2662C295.108 92.1257 295.786 90.9532 296.927 90.6474C298.069 90.3415 299.242 91.0181 299.548 92.1585Z" fill="#66A9FF" fill-opacity="0.7"/>
</g>
<path d="M312.145 122.855C312.56 124.261 312.965 125.678 313.361 127.106L293.024 132.184L291.959 127.894L312.145 122.855Z" fill="#FAFCFE"/>
<path d="M279.243 55.3569C280.213 56.5218 281.181 57.742 282.146 59.0154L266.458 81.093L262.709 78.6244L279.243 55.3569Z" fill="#FAFCFE"/>
<path d="M321.318 209.137C321.548 207.607 321.749 206.033 321.921 204.415L293.549 190.191L291.392 194.134L321.318 209.137Z" fill="#FAFCFE"/>
<path d="M313.331 126.997L344.733 118.978L343.668 114.689L312.114 122.747C312.529 124.153 312.935 125.57 313.331 126.997Z" fill="#06192F"/>
<path d="M282.327 59.2551L298.81 36.5725L295.064 34.0998L279.442 55.5973C280.407 56.7628 281.369 57.9827 282.327 59.2551Z" fill="#06192F"/>
<path d="M321.294 209.295C321.527 207.764 321.731 206.188 321.905 204.569L341.17 214.337L339.011 218.279L339.006 218.277L321.294 209.295Z" fill="#06192F"/>
<path d="M313.331 126.997L344.733 118.978L343.668 114.689L312.114 122.747C312.529 124.153 312.935 125.57 313.331 126.997Z" stroke="#5FA9FF"/>
<path d="M282.327 59.2551L298.81 36.5725L295.064 34.0998L279.442 55.5973C280.407 56.7628 281.369 57.9827 282.327 59.2551Z" stroke="#5FA9FF"/>
<path d="M321.294 209.295C321.527 207.764 321.731 206.188 321.905 204.569L341.17 214.337L339.011 218.279L339.006 218.277L321.294 209.295Z" stroke="#5FA9FF"/>
<path d="M127.333 224.479L173.193 212.191L195.045 293.744L149.185 306.032L127.333 224.479Z" fill="#0469DE"/>
<path d="M164.845 239.367L179.752 235.372C186.182 233.649 192.792 237.465 194.515 243.895C196.238 250.325 192.422 256.935 185.992 258.658L171.084 262.652L164.845 239.367Z" fill="#CCE2FF"/>
<path d="M245.825 170.85C243.404 164.076 241.178 156.962 239.2 149.582C237.326 142.587 235.764 135.687 234.508 128.959L250.666 124.63C262.251 121.526 274.157 128.392 277.258 139.966C280.36 151.54 273.482 163.44 261.897 166.544L245.825 170.85Z" fill="#FFC700"/>
<path d="M90.4689 177.574L86.0467 202.779" stroke="#06192F" stroke-width="2"/>
<path d="M102.704 173.047L98.2819 198.252" stroke="#06192F" stroke-width="2"/>
<path d="M114.938 168.52L110.516 193.725" stroke="#06192F" stroke-width="2"/>
</svg>
