<svg width="420" height="340" viewBox="0 0 420 340" fill="none" xmlns="http://www.w3.org/2000/svg">
<path d="M284.096 197.8L255.318 90.4003C246.479 57.4096 212.568 37.8315 179.578 46.6713V46.6713C146.587 55.5112 127.009 89.4215 135.849 122.412L137.485 128.518" stroke="#008F5A" stroke-width="16.9014"/>
<path d="M130.042 182.081L267.639 126.213L305.433 135.085L340.717 266.767L165.326 313.763L138.033 283.078L130.042 182.081Z" fill="#0469DE"/>
<path d="M143.591 289.326L138.033 283.077L137.727 279.21C138.08 279.004 138.434 278.801 138.793 278.604C140.127 277.872 141.312 277.042 142.519 276.198C143.135 275.766 143.757 275.331 144.407 274.903C145.163 274.404 145.834 273.79 146.505 273.177C147.193 272.548 147.882 271.918 148.661 271.414C149.896 270.617 151.261 270.053 152.63 269.487C153.231 269.239 153.832 268.99 154.424 268.722C155.081 268.423 155.732 268.074 156.386 267.723C157.567 267.089 158.758 266.449 160.012 266.095C162.036 265.525 164.229 265.808 166.386 266.087C167.398 266.218 168.402 266.348 169.377 266.388C170.421 266.431 171.5 266.612 172.585 266.794C174.567 267.127 176.571 267.463 178.424 266.967C178.719 266.888 178.866 267.08 179.03 267.293C179.145 267.443 179.269 267.603 179.457 267.688C179.983 267.924 180.706 267.685 181.32 267.482C181.494 267.424 181.66 267.37 181.809 267.33C182.919 267.032 183.618 267.292 184.64 267.7C184.754 267.745 184.884 267.792 185.022 267.841C185.571 268.035 186.248 268.275 186.546 268.701C186.85 269.133 187.357 269.701 187.738 270.014C187.84 270.098 187.987 270.245 188.137 270.395C188.471 270.731 188.824 271.086 188.748 270.801C188.675 270.527 189.313 270.992 189.484 271.169C189.591 271.279 189.851 271.255 190.119 271.231C190.248 271.219 190.379 271.207 190.496 271.21C190.858 271.218 191.14 271.406 191.422 271.594C191.652 271.747 191.881 271.9 192.153 271.955C192.38 272.001 192.702 271.888 192.978 271.791C193.084 271.754 193.183 271.719 193.267 271.697C193.698 271.582 194.004 271.43 194.264 271.301C194.84 271.016 195.188 270.844 196.159 271.426C197.08 271.979 198.24 272.36 199.287 272.079C199.806 271.94 200.209 271.649 200.61 271.36C201.008 271.072 201.403 270.787 201.909 270.651C202.649 270.453 203.212 271.171 203.717 271.816C203.924 272.081 204.122 272.333 204.318 272.505C204.96 273.067 206.279 273.181 206.519 272.227C206.583 271.976 206.657 271.725 206.731 271.474C206.926 270.811 207.124 270.142 207.136 269.432C207.151 268.576 208.488 268.57 209.012 269.111C209.275 269.381 209.533 269.499 209.804 269.623C209.968 269.698 210.137 269.776 210.314 269.89C210.493 270.007 210.583 270.526 210.646 270.894C210.668 271.02 210.686 271.129 210.704 271.197C210.969 272.184 211.399 272.501 211.979 271.5C212.216 271.091 213.662 271.248 213.466 271.989C213.228 272.886 213.816 273.578 214.593 274.005C215.16 274.317 215.783 274.503 216.407 274.69C217.059 274.886 217.711 275.081 218.3 275.42C219.161 275.915 220.037 276.177 221.014 276.376C221.534 276.481 222.249 276.351 222.839 276.243C223.014 276.211 223.179 276.181 223.324 276.16C224.133 276.042 224.809 276.393 225.485 276.743C225.726 276.869 225.968 276.994 226.215 277.098C226.89 277.382 227.554 277.615 228.307 277.767C228.58 277.823 228.925 277.815 229.278 277.807C229.862 277.793 230.472 277.778 230.83 278.049C230.962 278.148 231.067 278.252 231.169 278.352C231.341 278.52 231.504 278.68 231.768 278.795C231.868 278.838 231.887 278.934 231.907 279.027C231.924 279.111 231.941 279.194 232.017 279.232C232.148 279.298 232.442 279.192 232.657 279.114C232.702 279.097 232.744 279.082 232.78 279.07C232.802 279.063 232.822 279.057 232.839 279.052C233.666 278.831 234.475 278.569 235.286 278.306C236.101 278.042 236.918 277.778 237.758 277.553C237.941 277.504 238.13 277.443 238.322 277.381C239.031 277.152 239.786 276.909 240.444 277.196C240.73 277.32 240.824 277.669 240.916 278.01C240.987 278.276 241.058 278.537 241.217 278.682C241.505 278.946 242.268 278.468 242.511 278.316L242.514 278.314C242.807 278.131 243.221 278.044 243.603 277.965C243.754 277.933 243.902 277.902 244.033 277.867C244.652 277.701 245.255 277.493 245.859 277.285C246.364 277.111 246.869 276.937 247.385 276.787C248.07 276.588 248.752 276.37 249.435 276.152C250.359 275.857 251.287 275.56 252.229 275.308C253.181 275.053 254.112 274.509 254.995 273.993C255.253 273.843 255.507 273.695 255.756 273.557C255.805 273.529 255.978 273.462 256.201 273.376C256.779 273.153 257.696 272.798 257.699 272.653C257.702 272.44 257.522 272.196 257.342 271.953C257.003 271.493 256.664 271.036 257.574 270.792C258.009 270.675 258.462 270.601 258.909 270.527C259.342 270.456 259.769 270.385 260.168 270.278C261.179 270.007 261.658 269.875 261.055 268.871C260.966 268.723 260.815 268.565 260.663 268.405C260.226 267.947 259.78 267.48 260.764 267.216C260.875 267.187 261.005 267.14 261.143 267.09C261.489 266.966 261.888 266.822 262.17 266.88C262.421 266.931 262.654 267.047 262.886 267.163C263.117 267.279 263.349 267.394 263.597 267.445C263.683 267.462 263.839 267.534 264.025 267.621C264.668 267.917 265.668 268.379 265.389 267.337L265.381 267.31C265.219 266.704 264.846 265.316 265.797 265.464C266.357 265.552 266.644 265.647 267.216 265.85C267.473 265.942 268.312 266.282 268.437 266.521C268.806 267.227 269.38 266.732 269.876 266.305C270.095 266.117 270.298 265.941 270.463 265.887C271.379 265.587 272.363 266.205 273.159 266.705L273.162 266.707C273.283 266.784 273.4 266.857 273.512 266.924C274.885 267.748 276.209 268.701 277.485 269.669C277.728 269.854 277.979 270.007 278.225 270.158C278.46 270.302 278.692 270.443 278.91 270.608C279.082 270.738 279.244 270.839 279.394 270.932C279.846 271.214 280.184 271.425 280.33 272.132C280.394 272.443 280.145 272.518 279.905 272.591C279.78 272.629 279.656 272.666 279.581 272.736C279.289 273.006 279.433 273.544 279.521 273.871L279.526 273.889C279.762 274.771 281.594 274.121 282.774 273.702C283.072 273.596 283.329 273.505 283.507 273.457C284.214 273.268 284.614 273.549 285.056 273.86C285.334 274.056 285.629 274.264 286.029 274.374C287.173 274.689 288.325 275.369 289.232 276.136C290.336 277.068 291.689 277.542 293.048 278.019C293.826 278.291 294.606 278.564 295.341 278.924L247.452 291.756C246.81 291.089 245.811 290.971 244.9 290.917C244.815 290.912 244.728 290.907 244.639 290.901C244.028 290.862 243.324 290.817 242.753 290.908C242.539 290.942 242.341 290.867 242.146 290.794C241.937 290.715 241.731 290.637 241.512 290.696C241.081 290.812 240.619 291.044 240.146 291.282C239.326 291.695 238.472 292.125 237.682 291.994C237.123 291.902 236.565 291.88 236.008 291.857C235.475 291.835 234.944 291.814 234.415 291.731C233.898 291.65 231.987 292.421 231.8 292.845C231.638 293.213 231.623 293.544 231.733 293.951C231.842 294.36 230.94 294.215 230.362 294.123C230.165 294.091 230.004 294.065 229.936 294.07C229.359 293.421 228.719 293.02 227.833 292.648C227.209 292.387 226.676 292.517 226.078 292.663C225.988 292.685 225.895 292.708 225.801 292.729C225.502 292.798 225.277 292.617 225.089 292.466C224.956 292.359 224.841 292.267 224.732 292.29C224.229 292.394 223.443 292.161 222.811 291.974C222.642 291.924 222.484 291.877 222.346 291.841C222.03 291.758 221.756 291.635 221.483 291.513C221.09 291.337 220.699 291.163 220.188 291.109C219.203 291.006 218.462 290.448 217.724 289.892C217.326 289.592 216.928 289.293 216.494 289.065C215.443 288.516 213.75 287.915 212.561 287.791C212.222 287.756 211.889 287.673 211.552 287.59C211.292 287.526 211.03 287.461 210.762 287.417C210.668 287.401 210.561 287.394 210.45 287.386C210.09 287.362 209.68 287.333 209.492 287.021C209.417 286.896 209.357 286.765 209.299 286.637C209.142 286.294 208.992 285.966 208.562 285.779C208.319 285.672 208.397 286.404 208.457 286.957C208.488 287.245 208.514 287.485 208.486 287.533C208.483 287.538 208.178 287.589 207.84 287.646C207.456 287.71 207.031 287.782 206.96 287.801C206.381 287.956 205.477 287.521 204.989 287.24C204.153 286.76 203.882 286.319 203.417 285.562L203.397 285.53C203.363 285.474 203.33 285.419 203.297 285.363C203.037 284.927 202.795 284.522 202.223 284.394C199.626 283.81 197.616 283.955 195.047 284.644C194.262 284.854 193.826 284.536 193.346 284.187C193.063 283.98 192.764 283.763 192.37 283.638C191.619 283.399 190.982 283.181 190.283 282.796C189.881 282.575 189.444 282.446 189.013 282.318C188.612 282.2 188.215 282.083 187.856 281.894C186.532 281.199 185.48 280.76 184.001 280.529C183.405 280.436 182.609 279.827 182.447 279.222C182.207 278.328 181.067 278.152 181.359 279.241C181.621 280.219 180.693 281.357 179.576 281.08C178.494 280.811 177.67 280.026 176.888 279.281C176.694 279.095 176.501 278.912 176.309 278.74C174.763 277.362 172.982 277.374 170.96 277.392C170.473 277.396 170.306 277.241 170.142 277.088C170.012 276.967 169.884 276.848 169.6 276.809C169.147 276.747 168.628 276.848 168.186 276.966L168.147 276.977C166.884 277.315 165.807 277.603 164.907 278.661C164.577 279.049 161.589 279.888 161.269 279.545C160.924 279.175 159.099 279.038 158.496 279.2C157.815 279.382 157.316 280.253 157.068 280.852C156.988 281.044 156.968 281.243 156.948 281.433C156.918 281.724 156.89 281.995 156.658 282.192C155.908 282.827 155.291 283.142 154.34 283.397C154.138 283.451 153.919 283.414 153.706 283.378C153.47 283.339 153.242 283.3 153.054 283.389C152.657 283.577 152.29 283.854 151.925 284.131C151.512 284.443 151.102 284.754 150.654 284.929C150.37 285.04 150.717 285.416 150.917 285.633C150.957 285.676 150.991 285.713 151.013 285.74C151.617 286.485 151.586 287.989 151.032 288.718C150.21 289.8 148.547 288.365 148.255 287.527C148.083 287.037 147.763 286.792 147.274 286.923C147.187 286.946 147.059 286.969 146.912 286.995C146.455 287.077 145.818 287.19 145.694 287.447C145.298 288.27 144.519 288.868 143.591 289.326Z" fill="#0456B8"/>
<path d="M202.374 303.835L183.438 308.909C183 308.492 182.578 308.061 182.167 307.641C182.047 307.519 181.929 307.397 181.811 307.278L181.805 307.272C181.284 306.743 180.931 306.385 181.745 306.166L181.79 306.154C182.425 305.985 182.51 305.962 182.329 305.284C181.927 303.785 180.149 302.905 178.608 302.142C178.112 301.897 177.641 301.663 177.248 301.425C176.903 301.216 176.588 300.945 176.273 300.674C175.847 300.307 175.422 299.94 174.923 299.731C174.794 299.677 174.633 299.623 174.457 299.564C173.843 299.359 173.055 299.096 172.88 298.565C172.82 298.381 172.9 298.196 172.984 297.999C173.053 297.839 173.126 297.671 173.129 297.49C173.135 297.103 172.507 296.76 172.112 296.544C172.052 296.512 171.997 296.482 171.951 296.456C171.033 295.928 170.46 294.988 169.914 294.094C169.835 293.964 169.756 293.835 169.677 293.709C169.391 293.25 169.43 293.089 169.903 293.266C170.141 293.354 169.432 292.656 169.316 292.586C168.861 292.313 166.024 289.126 167.712 289.469C167.95 289.517 168.208 289.768 168.46 290.013C168.638 290.186 168.813 290.356 168.976 290.45C169.214 290.586 169.446 290.725 169.679 290.865C170.18 291.164 170.682 291.464 171.234 291.74C171.48 291.863 171.731 291.975 171.981 292.087C172.906 292.501 173.812 292.906 174.378 293.81C174.865 294.588 175.516 294.91 176.339 295.199C176.521 295.264 176.673 295.33 176.81 295.391C177.215 295.57 177.499 295.695 178.079 295.539L180.202 294.97C180.338 294.934 180.683 295.121 181.027 295.308C181.302 295.458 181.578 295.608 181.748 295.644C182.419 295.788 183.048 296.062 183.677 296.336C184.264 296.591 184.85 296.847 185.469 296.996C187.512 297.487 189.094 298.898 190.657 300.293C191.487 301.034 192.313 301.77 193.199 302.362C193.427 302.514 193.648 302.684 193.869 302.855C194.18 303.095 194.491 303.335 194.826 303.528C195.257 303.776 195.457 303.577 195.678 303.357C195.784 303.251 195.895 303.14 196.04 303.072C197.735 302.272 198.965 302.693 200.574 303.308C201.164 303.534 201.766 303.696 202.374 303.835Z" fill="#0456B8"/>
<path d="M336.285 250.224L340.718 266.766L338.956 267.238C338.567 267.217 338.179 267.173 337.799 267.113C337.312 267.037 336.64 267.345 335.947 267.662C334.849 268.164 333.698 268.691 333.146 267.755C332.963 267.446 332.842 266.991 332.72 266.527C332.56 265.925 332.396 265.307 332.087 264.975C331.82 264.689 330.008 265.17 329.656 265.264C329.431 265.324 329.205 265.389 328.98 265.454C328.528 265.583 328.074 265.713 327.617 265.81C327.351 265.867 327.038 265.668 326.757 265.489C326.621 265.402 326.493 265.321 326.381 265.275C326.02 265.127 325.645 265.042 325.27 264.958C324.875 264.869 324.479 264.78 324.101 264.616C324.019 264.581 323.938 264.545 323.859 264.509C323.286 264.252 322.776 264.024 322.127 264.198C321.64 264.328 321.314 264.606 320.997 264.877C320.697 265.134 320.404 265.385 319.987 265.497C319.164 265.717 318.111 265.605 317.153 265.504C316.828 265.469 316.513 265.436 316.222 265.417C315.453 265.367 314.68 265.416 313.907 265.465C313.11 265.515 312.313 265.566 311.522 265.507L311.464 265.503C310.757 265.451 310.58 265.438 310.045 264.865C309.817 264.62 309.572 264.374 309.322 264.124C308.444 263.244 307.513 262.311 307.086 261.183C307.059 261.111 307.04 261.032 307.02 260.953C306.96 260.708 306.9 260.462 306.607 260.415C305.661 260.262 304.5 260.447 303.474 260.61C303.228 260.649 302.99 260.687 302.764 260.719C301.583 260.885 301.637 260.923 301.956 261.148C302.097 261.247 302.288 261.382 302.448 261.58C302.773 261.98 299.989 261.947 299.439 261.751C299.126 261.64 298.839 261.356 298.572 261.092C298.452 260.974 298.337 260.86 298.224 260.766C298.019 260.595 297.786 260.5 297.554 260.405C297.274 260.29 296.995 260.175 296.766 259.928C296.547 259.693 296.404 259.444 296.263 259.199C296.058 258.842 295.856 258.492 295.432 258.199C295.121 257.984 294.805 257.778 294.49 257.573C293.584 256.985 292.684 256.4 291.924 255.602C291.612 255.274 291.275 254.99 290.942 254.709C290.374 254.23 289.819 253.762 289.425 253.107C289.376 253.025 287.6 253.314 287.41 253.365C286.971 253.482 286.556 253.371 286.129 253.257L286.037 253.232C285.984 253.218 285.93 253.204 285.876 253.191C285.593 253.121 285.332 253.07 285.085 253.022C284.348 252.879 283.731 252.759 283.008 252.226C282.487 251.842 281.87 251.377 281.695 250.724C281.68 250.668 281.667 250.612 281.655 250.557C281.593 250.282 281.536 250.025 281.223 249.943C280.687 249.803 280.1 249.834 279.511 249.865C278.914 249.896 278.315 249.927 277.761 249.782C277.363 249.679 276.99 249.494 276.614 249.308C276.107 249.058 275.596 248.805 275.014 248.745C274.717 248.714 274.394 248.593 274.07 248.472C273.671 248.323 273.27 248.173 272.913 248.189C271.966 248.231 271.038 248.051 270.14 247.693C268.722 247.127 267.726 246.784 266.258 247.251C266.072 247.311 265.884 247.37 265.696 247.429L265.689 247.431C264.328 247.86 262.929 248.3 261.659 248.927L261.365 249.073C260.532 249.487 259.678 249.911 258.781 250.152C256.958 250.64 255.228 251.183 253.546 252.058C253.377 252.146 253.181 252.187 252.987 252.227C252.775 252.27 252.564 252.314 252.388 252.419C252.229 252.514 252.108 252.916 252.011 253.242C251.963 253.402 251.92 253.544 251.881 253.623C251.615 254.162 251.278 254.523 250.799 254.87C250.625 254.997 250.532 255.194 250.438 255.391C250.352 255.573 250.267 255.754 250.119 255.879C249.788 256.159 249.234 256.077 248.799 256.012C248.709 255.999 248.624 255.986 248.547 255.978C247.902 255.907 247.231 255.946 246.57 255.984C246.32 255.998 246.072 256.013 245.827 256.021C245.358 256.037 245.157 255.771 245.006 255.571C244.852 255.366 244.749 255.23 244.464 255.54C244.282 255.737 244.188 256.017 244.097 256.285C243.951 256.718 243.814 257.121 243.335 257.102C243.178 257.096 243.032 257.091 242.893 257.087C241.752 257.051 241.175 257.033 240.158 256.23C238.421 254.859 236.212 255.462 234.223 256.005C234.08 256.044 233.937 256.083 233.796 256.121L251.495 239.95C252.344 239.723 253.214 239.594 254.083 239.465C254.564 239.393 255.045 239.322 255.522 239.234C257.66 238.84 259.735 238.286 261.834 237.724C266.044 236.596 270.224 235.625 274.55 235.083C277.291 234.739 279.844 234.554 282.585 235.056C285.447 235.58 288.074 236.391 290.822 237.293C291.026 237.36 291.294 237.416 291.573 237.473C292.018 237.566 292.49 237.663 292.764 237.821C292.891 237.894 292.972 238.056 293.056 238.225C293.147 238.408 293.242 238.599 293.404 238.698C294.428 239.324 295.952 239.951 297.147 240.134C297.496 240.187 297.855 240.26 298.219 240.333C299.267 240.546 300.357 240.766 301.367 240.555C301.59 240.508 301.648 240.824 301.692 241.057C301.704 241.122 301.715 241.181 301.728 241.224C301.829 241.553 302.068 241.768 302.304 241.981C302.525 242.179 302.742 242.376 302.841 242.659C302.906 242.845 302.946 243.02 302.982 243.18C303.089 243.655 303.169 244.005 303.801 244.165C304.825 244.426 305.695 244.74 306.69 245.1L306.938 245.189C307.345 245.336 307.77 245.414 308.191 245.491C308.996 245.637 309.784 245.781 310.398 246.399C310.564 246.565 310.655 246.906 310.747 247.248C310.889 247.776 311.031 248.305 311.446 248.194C311.544 248.168 311.683 248.14 311.845 248.107C312.544 247.965 313.678 247.735 313.847 247.188C314.104 246.35 315.263 245.202 316.216 245.535C316.267 245.553 316.364 245.58 316.478 245.612C316.746 245.687 317.106 245.788 317.171 245.854C317.922 246.608 318.663 247.35 319.439 248.048C319.741 248.32 320.609 248.005 321.209 247.787C321.389 247.721 321.545 247.665 321.655 247.635C322.19 247.492 322.72 247.511 323.254 247.53C323.53 247.54 323.807 247.55 324.087 247.538C324.187 247.534 324.31 247.524 324.445 247.513C324.927 247.476 325.564 247.426 325.862 247.556C326.243 247.722 326.802 247.607 327.316 247.5C327.584 247.445 327.839 247.392 328.051 247.383C328.712 247.354 330.651 247.359 331.146 247.722C331.37 247.886 331.68 247.995 331.998 248.106C332.559 248.302 333.145 248.507 333.321 249.044C333.553 249.749 334.048 249.825 334.673 249.922L334.743 249.933C335.243 250.011 335.764 250.113 336.285 250.224Z" fill="#0456B8"/>
<path d="M325.108 208.512L329.806 226.042C329.477 226.35 329.097 226.594 328.615 226.723C327.202 227.102 327.935 227.62 328.771 228.212L328.873 228.284L328.959 228.344C329.744 228.907 330.071 230.868 328.984 231.159C328.447 231.303 328.421 231.264 328.119 230.819L328.112 230.809C327.718 230.229 327.401 230.314 326.778 230.481L326.751 230.488C325.798 230.743 324.497 230.656 323.615 230.149C323.405 230.028 323.2 229.87 322.994 229.711C322.462 229.3 321.919 228.88 321.231 229.065C320.746 229.195 320.492 227.824 320.193 226.208C319.812 224.154 319.358 221.703 318.263 221.425C318.106 221.385 317.85 221.386 317.568 221.387C317.009 221.389 316.352 221.391 316.186 221.074C315.993 220.704 315.916 220.274 315.838 219.844C315.739 219.293 315.64 218.743 315.297 218.32C314.82 217.732 314.415 217.069 314.009 216.404C313.588 215.714 313.165 215.021 312.661 214.41C312.372 214.06 311.886 213.711 311.439 213.589C311.298 213.55 311.209 213.452 311.116 213.351C311.005 213.229 310.889 213.102 310.673 213.068C310.395 213.025 309.998 213.163 309.659 213.28C309.529 213.325 309.406 213.367 309.304 213.395C308.861 213.514 308.374 213.23 307.945 212.98C307.813 212.903 307.687 212.829 307.569 212.771L307.403 212.691C305.969 211.99 304.694 211.366 303.575 210.213C303.11 209.734 301.649 209.46 301.059 209.618C301.034 209.624 300.993 209.633 300.938 209.645L300.842 209.664C300.333 209.768 299.205 209.997 299.264 210.28C299.334 210.623 299.243 210.963 299.152 211.306C299.096 211.515 299.04 211.725 299.02 211.938C298.929 212.903 297.727 212.244 297.272 211.983C296.897 211.768 296.455 211.693 296.007 211.616C295.513 211.532 295.012 211.447 294.586 211.171C293.693 210.593 292.643 209.439 292.208 208.452C291.207 206.179 288.41 207.144 286.248 207.89C285.757 208.059 285.298 208.218 284.901 208.324L280.549 200.239C280.611 199.941 281.026 199.767 281.381 199.618C281.511 199.563 281.633 199.512 281.726 199.46C281.92 199.35 282.12 199.229 282.325 199.104C282.935 198.733 283.589 198.336 284.222 198.166C285.27 197.885 286.139 198.125 287.077 198.384C287.417 198.478 287.766 198.574 288.135 198.649C288.992 198.823 289.518 198.642 290.138 198.428C290.388 198.341 290.653 198.25 290.962 198.174C292 197.92 293.136 197.864 294.177 198.129C294.384 198.182 294.576 198.284 294.766 198.386C294.952 198.485 295.137 198.584 295.334 198.635C297.478 199.196 299.638 198.596 301.716 198.019C301.99 197.943 302.263 197.867 302.534 197.794C303.286 197.593 303.666 197.917 304.078 198.268C304.384 198.529 304.708 198.804 305.215 198.89L305.316 198.907C306.219 199.061 307.287 199.242 308.169 199.005C308.46 198.928 308.735 198.808 309.008 198.689C309.278 198.572 309.545 198.455 309.823 198.381C310.938 198.082 311.873 198.658 312.79 199.221C312.967 199.33 313.143 199.439 313.32 199.54C315.552 200.823 317.476 202.368 319.435 203.942C320 204.395 320.567 204.851 321.146 205.304C321.519 205.595 321.906 205.872 322.294 206.149C322.925 206.599 323.558 207.05 324.13 207.568C324.244 207.672 324.363 207.795 324.487 207.924C324.681 208.126 324.888 208.342 325.108 208.512Z" fill="#0456B8"/>
<path d="M313.718 166.003L317.958 181.827C317.564 181.889 317.154 181.923 316.799 181.909C316.499 181.897 316.196 181.984 315.893 182.07C315.411 182.208 314.931 182.346 314.468 182.08C313.725 181.653 312.705 180.804 312.439 179.943C312.389 179.783 312.358 179.625 312.329 179.476C312.241 179.022 312.17 178.661 311.648 178.653C308.993 178.612 306.16 179.125 303.393 179.625C302.219 179.837 301.058 180.047 299.927 180.212L299.803 180.23L299.656 180.253L299.548 180.269C298.68 180.402 297.649 180.56 296.826 180.418C296.535 180.368 296.224 180.344 295.908 180.32C295.303 180.274 294.683 180.227 294.162 179.993C294.114 179.971 294.07 179.951 294.029 179.932C293.686 179.774 293.539 179.706 293.105 179.823C292.603 179.957 292.383 180.371 292.174 180.765C292.022 181.053 291.875 181.33 291.627 181.478C290.89 181.919 290.103 181.533 289.458 181.163C288.863 180.82 288.139 180.692 287.413 180.564C286.367 180.38 285.319 180.195 284.648 179.368C284.541 179.236 284.456 179.057 284.379 178.894C284.181 178.475 284.031 178.158 283.677 178.993C283.346 179.774 282.192 180.283 281.347 180.111C280.182 179.874 279.312 179.948 278.214 180.041L277.955 180.063C277.549 180.096 277.151 180.023 276.754 179.949C276.263 179.859 275.774 179.769 275.277 179.883C274.555 180.049 273.838 180.251 273.122 180.452C272.764 180.552 272.406 180.652 272.049 180.748L270.405 173.933C270.429 173.544 270.444 173.161 270.459 172.782C270.537 170.832 270.609 169.012 271.811 167.288C272.591 166.168 273.17 165.397 274.669 165.534C275.178 165.58 275.685 165.594 276.187 165.608C277.582 165.646 278.942 165.683 280.216 166.416C280.838 166.773 281.397 167.232 281.955 167.69C282.375 168.034 282.794 168.378 283.241 168.679L283.252 168.687C283.554 168.891 284.395 169.459 284.759 169.361C286.275 168.955 287.448 168.856 288.956 169.244C289.053 169.269 289.156 169.291 289.26 169.314C289.784 169.427 290.353 169.55 290.498 170.091C290.611 170.515 290.701 170.491 291.084 170.387L291.14 170.372L295.028 169.33C295.113 169.308 295.231 169.265 295.366 169.216C295.794 169.061 296.394 168.843 296.67 169.001C296.771 169.06 296.876 169.136 296.984 169.215C297.196 169.369 297.418 169.531 297.643 169.577C298.825 169.817 300.442 169.694 301.616 169.379C302.044 169.264 302.477 169.194 302.909 169.124C303.339 169.054 303.769 168.984 304.191 168.87C304.569 168.769 304.631 168.656 304.752 168.436C304.799 168.351 304.855 168.249 304.942 168.125C305.022 168.012 305.111 167.879 305.208 167.733C305.87 166.739 306.91 165.175 308.053 165.578C308.422 165.708 308.797 165.921 309.173 166.135C309.899 166.549 310.629 166.964 311.319 166.779C311.95 166.61 312.545 166.405 313.14 166.201C313.332 166.134 313.525 166.068 313.718 166.003Z" fill="#0456B8"/>
<path d="M288.586 131.129L296.003 132.871C295.768 133.066 295.477 133.326 295.473 133.576C295.471 133.668 295.501 133.757 295.53 133.846C295.577 133.988 295.623 134.128 295.538 134.274C295.11 135.012 294.364 135.462 293.64 135.899C293.34 136.08 293.043 136.259 292.774 136.456C292.424 136.712 292.065 136.941 291.706 137.171C291.13 137.539 290.554 137.907 290.014 138.385C289.92 138.467 289.849 138.524 289.796 138.566C289.716 138.628 289.678 138.658 289.672 138.693C289.666 138.725 289.685 138.761 289.721 138.83C289.743 138.871 289.771 138.925 289.803 138.995C289.872 139.146 290.036 139.548 289.897 139.686C289.679 139.901 289.576 140.22 289.469 140.552C289.359 140.896 289.244 141.253 288.993 141.52C287.856 142.73 285.805 143.51 284.108 143.374C283.832 143.351 283.725 143.12 283.627 142.909C283.511 142.657 283.407 142.432 283.046 142.62C282.836 142.729 282.633 142.84 282.433 142.95C281.763 143.317 281.12 143.67 280.338 143.88C279.517 144.1 279.265 144 278.625 143.746C278.523 143.706 278.41 143.661 278.284 143.614C278.128 143.554 277.914 143.438 277.673 143.307C277.042 142.965 276.229 142.524 275.797 142.748C275.15 143.085 274.83 143.931 274.545 144.684C274.434 144.975 274.329 145.253 274.212 145.481C274.021 145.854 274.636 146.561 275.033 147.017C275.135 147.135 275.224 147.237 275.279 147.311C276.607 149.081 273.505 149.683 271.858 150.002C271.556 150.061 271.303 150.11 271.135 150.155L269.243 149.211C269.327 149.522 268.662 148.715 268.437 148.44C268.401 148.397 268.376 148.367 268.367 148.357C268.292 148.272 268.191 148.168 268.081 148.053C267.718 147.675 267.243 147.181 267.159 146.867C266.997 146.264 266.604 145.65 266.221 145.052C265.978 144.672 265.739 144.299 265.565 143.938C265.119 143.015 264.87 141.951 264.628 140.918C264.536 140.525 264.445 140.136 264.344 139.76C264.29 139.558 264.172 139.332 264.049 139.096C263.829 138.672 263.592 138.218 263.683 137.821C263.916 136.798 266.208 136.217 267.335 135.932C267.461 135.9 267.573 135.872 267.666 135.847C267.979 135.763 268.294 135.67 268.612 135.576C269.568 135.293 270.54 135.005 271.514 134.957C272.19 134.923 272.863 134.734 273.537 134.545C274.215 134.354 274.895 134.163 275.581 134.129C275.782 134.119 275.976 134.108 276.165 134.097C277.656 134.012 278.805 133.947 280.3 134.598C280.513 134.691 281.024 134.502 281.372 134.373C281.489 134.33 281.587 134.294 281.65 134.277L283.83 133.693C284.73 133.451 285.472 133.046 286.284 132.582C287.074 132.129 287.839 131.642 288.586 131.129Z" fill="#0456B8"/>
<rect x="107.499" y="169.123" width="165.789" height="117.975" transform="rotate(-15 107.499 169.123)" fill="#2DE09E"/>
<path d="M118.036 208.45C118.147 208.411 118.261 208.375 118.377 208.344C120.782 207.7 123.252 209.115 123.892 211.506C124.533 213.897 123.102 216.357 120.696 217.002C120.581 217.033 120.465 217.059 120.349 217.081L118.036 208.45Z" fill="#127A3F" fill-opacity="0.5"/>
<path d="M114.775 196.278C114.99 196.248 115.205 196.204 115.419 196.146C118.306 195.373 120.023 192.42 119.254 189.551C118.486 186.682 115.522 184.984 112.636 185.757C112.421 185.815 112.213 185.884 112.011 185.965L114.775 196.278Z" fill="#127A3F" fill-opacity="0.5"/>
<path d="M109.209 175.504C109.423 175.471 109.638 175.426 109.852 175.368C113.059 174.509 114.967 171.228 114.113 168.041C114.055 167.823 113.985 167.611 113.905 167.406L107.499 169.123L109.209 175.504Z" fill="#127A3F" fill-opacity="0.5"/>
<path d="M124.986 164.437C125.01 164.556 125.038 164.676 125.07 164.796C125.881 167.824 129.009 169.617 132.056 168.8C135.103 167.984 136.916 164.867 136.104 161.839C136.072 161.719 136.037 161.602 135.998 161.486L124.986 164.437Z" fill="#127A3F" fill-opacity="0.5"/>
<path d="M147.056 158.523C147.079 158.643 147.107 158.763 147.139 158.882C147.865 161.592 150.663 163.196 153.39 162.465C156.116 161.735 157.737 158.946 157.011 156.237C156.979 156.117 156.943 156 156.903 155.885L147.056 158.523Z" fill="#127A3F" fill-opacity="0.5"/>
<path d="M169.744 152.444C169.766 152.663 169.807 152.883 169.865 153.102C170.463 155.333 172.768 156.654 175.013 156.053C177.258 155.451 178.594 153.155 177.996 150.923C177.937 150.704 177.862 150.494 177.772 150.293L169.744 152.444Z" fill="#127A3F" fill-opacity="0.5"/>
<path d="M192.947 146.227C192.962 146.347 192.986 146.468 193.018 146.589C193.402 148.023 194.884 148.873 196.327 148.486C197.771 148.099 198.629 146.623 198.245 145.188C198.213 145.068 198.172 144.951 198.125 144.839L192.947 146.227Z" fill="#127A3F" fill-opacity="0.5"/>
<path d="M216.155 140.008C216.16 140.031 216.165 140.053 216.171 140.076C216.342 140.713 217 141.091 217.642 140.919C218.283 140.747 218.665 140.091 218.494 139.453C218.488 139.431 218.481 139.409 218.474 139.387L216.155 140.008Z" fill="#127A3F" fill-opacity="0.5"/>
<path d="M131.146 257.377C131.363 257.4 131.588 257.385 131.812 257.325C132.774 257.067 133.347 256.083 133.091 255.127C132.834 254.17 131.847 253.604 130.884 253.862C130.66 253.922 130.458 254.021 130.282 254.15L131.146 257.377Z" fill="#127A3F" fill-opacity="0.5"/>
<path d="M125.884 237.736C126.2 237.746 126.523 237.71 126.845 237.624C128.609 237.151 129.658 235.347 129.188 233.594C128.718 231.84 126.907 230.802 125.143 231.275C124.822 231.361 124.524 231.492 124.255 231.658L125.884 237.736Z" fill="#127A3F" fill-opacity="0.5"/>
<path d="M132.949 217.43C131.025 217.946 129.88 219.914 130.392 221.827C130.905 223.739 132.88 224.872 134.805 224.356C136.729 223.84 137.874 221.872 137.361 219.959C136.849 218.047 134.873 216.915 132.949 217.43Z" fill="#127A3F" fill-opacity="0.5"/>
<path d="M186.84 157.214C185.396 157.601 184.538 159.077 184.922 160.512C185.306 161.946 186.788 162.795 188.231 162.409C189.675 162.022 190.533 160.545 190.149 159.111C189.765 157.677 188.283 156.827 186.84 157.214Z" fill="#127A3F" fill-opacity="0.5"/>
<path d="M146.786 226.095C145.343 226.481 144.484 227.958 144.868 229.392C145.253 230.826 146.734 231.676 148.178 231.289C149.621 230.902 150.48 229.426 150.095 227.991C149.711 226.557 148.229 225.708 146.786 226.095Z" fill="#127A3F" fill-opacity="0.5"/>
<path d="M139.271 239.862C138.148 240.162 137.48 241.311 137.779 242.426C138.078 243.542 139.231 244.202 140.353 243.902C141.476 243.601 142.144 242.453 141.845 241.337C141.546 240.221 140.393 239.561 139.271 239.862Z" fill="#127A3F" fill-opacity="0.5"/>
<path d="M152.255 249.991C152.085 249.354 152.466 248.698 153.108 248.526C153.749 248.354 154.408 248.731 154.578 249.369C154.749 250.007 154.368 250.663 153.726 250.835C153.085 251.006 152.426 250.629 152.255 249.991Z" fill="#127A3F" fill-opacity="0.5"/>
<path d="M209.218 152.455C208.416 152.67 207.939 153.49 208.152 154.287C208.366 155.084 209.189 155.556 209.991 155.341C210.793 155.126 211.27 154.306 211.056 153.509C210.842 152.712 210.019 152.24 209.218 152.455Z" fill="#127A3F" fill-opacity="0.5"/>
<path d="M160.003 237.09C159.789 236.293 160.266 235.473 161.068 235.258C161.87 235.043 162.693 235.515 162.906 236.312C163.12 237.109 162.643 237.929 161.841 238.144C161.039 238.359 160.216 237.887 160.003 237.09Z" fill="#127A3F" fill-opacity="0.5"/>
<path d="M201.257 165.723C200.295 165.981 199.723 166.965 199.979 167.921C200.235 168.877 201.223 169.444 202.185 169.186C203.147 168.928 203.72 167.944 203.463 166.987C203.207 166.031 202.219 165.465 201.257 165.723Z" fill="#127A3F" fill-opacity="0.5"/>
<path d="M161.615 166.447C161.017 164.216 162.352 161.92 164.597 161.318C166.843 160.716 169.147 162.038 169.745 164.269C170.343 166.5 169.008 168.797 166.763 169.398C164.517 170 162.213 168.679 161.615 166.447Z" fill="#127A3F" fill-opacity="0.5"/>
<path d="M178.434 169.982C176.67 170.455 175.621 172.259 176.091 174.013C176.561 175.766 178.371 176.804 180.135 176.331C181.9 175.858 182.949 174.054 182.479 172.301C182.009 170.548 180.198 169.51 178.434 169.982Z" fill="#127A3F" fill-opacity="0.5"/>
<path d="M191.225 181.711C190.926 180.595 191.594 179.447 192.716 179.146C193.839 178.845 194.991 179.506 195.29 180.622C195.589 181.737 194.921 182.885 193.799 183.186C192.676 183.487 191.524 182.826 191.225 181.711Z" fill="#127A3F" fill-opacity="0.5"/>
<path d="M142.665 166.576C139.938 167.307 138.317 170.095 139.043 172.805C139.769 175.514 142.567 177.119 145.294 176.388C148.02 175.658 149.641 172.869 148.915 170.16C148.189 167.45 145.391 165.846 142.665 166.576Z" fill="#127A3F" fill-opacity="0.5"/>
<path d="M123.354 200.206C122.671 197.656 124.197 195.031 126.763 194.344C129.329 193.656 131.963 195.166 132.646 197.716C133.329 200.266 131.803 202.891 129.237 203.578C126.671 204.266 124.037 202.756 123.354 200.206Z" fill="#127A3F" fill-opacity="0.5"/>
<path d="M156.501 175.241C154.256 175.842 152.921 178.139 153.519 180.37C154.117 182.601 156.421 183.923 158.667 183.321C160.912 182.719 162.247 180.423 161.649 178.192C161.051 175.96 158.747 174.639 156.501 175.241Z" fill="#127A3F" fill-opacity="0.5"/>
<path d="M137.83 207.771C137.275 205.699 138.515 203.567 140.6 203.008C142.685 202.45 144.825 203.676 145.38 205.748C145.935 207.82 144.695 209.953 142.61 210.511C140.526 211.07 138.385 209.843 137.83 207.771Z" fill="#127A3F" fill-opacity="0.5"/>
<path d="M170.338 183.905C168.574 184.378 167.525 186.182 167.995 187.935C168.465 189.688 170.275 190.726 172.04 190.254C173.804 189.781 174.853 187.977 174.383 186.224C173.913 184.47 172.102 183.432 170.338 183.905Z" fill="#127A3F" fill-opacity="0.5"/>
<path d="M152.306 215.336C151.879 213.743 152.833 212.102 154.437 211.673C156.041 211.243 157.687 212.186 158.114 213.78C158.541 215.374 157.587 217.014 155.983 217.444C154.38 217.874 152.733 216.93 152.306 215.336Z" fill="#127A3F" fill-opacity="0.5"/>
<path d="M184.62 193.069C183.498 193.37 182.83 194.518 183.129 195.633C183.428 196.749 184.58 197.41 185.703 197.109C186.825 196.808 187.493 195.66 187.194 194.544C186.895 193.429 185.743 192.768 184.62 193.069Z" fill="#127A3F" fill-opacity="0.5"/>
<path d="M167.44 223.035C167.184 222.078 167.757 221.094 168.719 220.836C169.681 220.578 170.669 221.145 170.925 222.101C171.181 223.057 170.609 224.041 169.647 224.299C168.684 224.557 167.697 223.991 167.44 223.035Z" fill="#127A3F" fill-opacity="0.5"/>
<path d="M121.022 171.757C117.975 172.573 116.163 175.69 116.974 178.718C117.785 181.746 120.913 183.539 123.96 182.723C127.007 181.906 128.82 178.79 128.008 175.762C127.197 172.733 124.069 170.94 121.022 171.757Z" fill="#127A3F" fill-opacity="0.5"/>
<path d="M131.605 186.861C130.922 184.31 132.448 181.686 135.014 180.998C137.58 180.311 140.214 181.821 140.897 184.371C141.58 186.921 140.054 189.545 137.488 190.233C134.922 190.92 132.288 189.411 131.605 186.861Z" fill="#127A3F" fill-opacity="0.5"/>
<path d="M148.851 189.663C146.766 190.221 145.526 192.354 146.081 194.426C146.636 196.498 148.776 197.724 150.861 197.166C152.946 196.607 154.186 194.475 153.631 192.403C153.075 190.331 150.935 189.104 148.851 189.663Z" fill="#127A3F" fill-opacity="0.5"/>
<path d="M160.48 201.702C160.01 199.949 161.059 198.145 162.823 197.672C164.587 197.199 166.398 198.237 166.868 199.991C167.338 201.744 166.288 203.548 164.524 204.021C162.76 204.494 160.949 203.455 160.48 201.702Z" fill="#127A3F" fill-opacity="0.5"/>
<path d="M176.815 206.914C175.532 207.257 174.769 208.57 175.11 209.845C175.452 211.12 176.769 211.875 178.052 211.531C179.335 211.187 180.098 209.875 179.756 208.6C179.415 207.325 178.098 206.57 176.815 206.914Z" fill="#127A3F" fill-opacity="0.5"/>
<path fill-rule="evenodd" clip-rule="evenodd" d="M212.522 203.688C216.44 199.641 218.176 193.547 216.564 187.529C214.165 178.577 205.266 173.183 196.687 175.482C188.108 177.781 183.097 186.901 185.496 195.853C187.109 201.871 191.659 206.281 197.075 207.827L195.315 242.667L231.467 232.98L212.522 203.688Z" fill="#06192F"/>
</svg>
