<svg width="2286" height="2286" viewBox="0 0 2286 2286" fill="none" xmlns="http://www.w3.org/2000/svg">
<g clip-path="url(#clip0_57_5802)">
<path d="M2286 1071.83C2241.08 994.101 2240.77 909.359 2250.26 822.343C2255.97 770.119 2258.79 718.444 2224.22 672.61C2180.99 615.323 2122.17 603.493 2061.51 641.749C2050.95 648.413 2039.98 655.122 2031.23 663.854C1955.12 739.795 1858.93 769.868 1756.31 786.155C1730.79 790.014 1705.5 795.273 1680.55 801.906C1585.16 827.978 1550.1 889.208 1575.4 984.98C1599.4 1076.02 1655.26 1148.69 1713.15 1219.84C1755.81 1272.26 1801.59 1321.74 1860.76 1356.34C1968.63 1419.41 2103.07 1370.15 2132.58 1256.9C2145.8 1206.24 2132.79 1158.52 2116 1111.24C2103.43 1075.94 2089.43 1041.14 2082.21 1004.14C2072.28 953.171 2088.06 907.668 2110.94 863.388C2124.19 837.75 2138.16 812.307 2142.18 782.989C2146.11 754.289 2124.36 734.983 2096.46 742.984C2069.79 750.631 2053.66 770.759 2039.55 792.842C2014.05 832.71 2006.16 879.321 1990.07 922.79C1964.63 991.495 1930.76 1055.22 1874.99 1104.25C1840.36 1134.7 1802.2 1162.73 1752.53 1139.61C1708.89 1119.28 1676.95 1051.8 1683.32 1001.12C1691.64 934.825 1731.04 892.534 1790.44 868.6C1883.14 831.212 1971.04 787.344 2043.89 716.33C2071.69 689.206 2108.04 669.284 2146.95 693.092C2188.77 718.684 2185.27 762.598 2179.45 804.089C2175.33 833.453 2168.29 862.382 2162.09 891.471C2150.82 944.187 2164.45 991.095 2193.51 1035.12C2213.72 1065.76 2234.66 1096.05 2249.7 1129.8C2278.67 1194.61 2272.97 1256.24 2226.6 1309.78C2146.59 1402.07 2040.29 1446.76 1921.94 1457.91C1839.19 1465.69 1784.53 1413.55 1742.9 1347.47C1733.48 1332.62 1724.91 1317.24 1717.22 1301.42C1686.36 1237.41 1646.24 1180.57 1596.95 1128.99C1540.59 1070 1505.29 999.896 1509.96 915.554C1515.44 816.834 1569.03 748.814 1666.47 733.303C1802.07 711.723 1928.22 668.152 2049.74 604.967C2140.94 557.567 2207.17 572.14 2262.77 638.926C2271.65 649.602 2279.43 661.143 2286 673.376V561.064C2255.77 538.764 2221.78 522.648 2181.62 516.865C2140.75 510.978 2103.05 524.34 2068.19 543.474C2013.78 573.352 1961.97 608.087 1906.79 636.342C1821.59 679.982 1732.39 691.206 1640.47 656.505C1554.32 624.009 1532.08 546.08 1542.95 463.761C1543.83 457.12 1545.66 449.37 1553.3 448.33C1561.76 447.187 1565.34 455.12 1567.72 461.441C1572.78 474.917 1577.65 488.61 1580.87 502.589C1604.04 603.435 1659.11 640.651 1762.47 627.633C1836.77 618.283 1899.96 583.33 1963.16 547.268C2016.33 516.922 2068.78 485.089 2127.89 466.767C2187.33 448.33 2238.9 459.497 2286.01 487.787V365.486C2237.34 358.994 2190.88 375.396 2144.94 405.068C2056.49 462.218 1960.45 505.526 1865.72 550.675C1769.54 596.52 1658.21 550.457 1624.76 455.714C1592.35 363.84 1652.2 258.444 1753.03 230.84C1825.76 210.941 1897.23 220.976 1961.16 256.615C2044.31 302.975 2132.42 320.212 2225.46 322.212C2245.71 322.646 2265.89 323.915 2286.03 325.904V249.323C2221.7 249.071 2157.3 254.66 2093.05 249.414C2055.63 246.362 2023.25 228.051 1990.92 210.323C1888.89 154.316 1783.47 142.315 1675.54 190.995C1556.77 244.602 1495.57 336.979 1490.88 468.15C1487.88 552.538 1498.71 636.48 1494.68 720.833C1491.51 786.807 1477.85 851.135 1469.29 916.286C1462.56 967.492 1464.72 1017.88 1492 1063.17C1568.2 1189.86 1644.47 1316.45 1730.25 1436.75C1770.54 1493.3 1824.96 1531.36 1899.3 1529.22C1918.23 1528.67 1937.28 1526.39 1954.44 1518.93C2044.74 1479.59 2135.33 1439.54 2211.97 1376.74C2241.01 1352.95 2266.73 1326.66 2286 1296.73V1071.83Z" fill="white"/>
<path d="M1450.32 1906.12C1424.43 1864.82 1388.1 1833.73 1348.42 1806.68C1255.84 1743.75 1192.1 1660.01 1167.19 1550.43C1138.85 1425.85 1076.04 1328.78 960.76 1267.77C885.128 1227.76 825.063 1169.17 774.245 1100.54C741.898 1056.84 711.38 1011.57 672.518 973.013C630.97 931.865 582.221 918.057 525.151 930.836C490.495 938.586 456.766 950.736 420.875 952.759C343.357 957.137 278.72 925.887 218.999 880.578C195.647 862.862 172.764 844.174 144.018 835.544C136.463 833.258 126.313 828.972 121.718 838.253C117.649 846.437 127.353 851.009 132.691 855.398C171.45 887.791 211.455 918.858 249.517 951.993C326.806 1019.14 415.732 1046.39 516.979 1033.08C607.504 1021.19 682.371 1047.67 731.783 1126.49C790.076 1219.52 841.134 1316.85 886.762 1416.63C921.521 1492.63 919.235 1575.51 919.909 1656.89C920.423 1723.68 933.625 1785.41 973.482 1840.49C999.416 1876.3 1000.44 1915.29 981.883 1954.99C962.886 1995.65 943.775 2036.25 924.55 2076.79C921.738 2082.71 920.058 2092.86 911.462 2090.68C903.461 2088.66 903.919 2078.99 903.644 2071.55C902.433 2038.87 910.742 2007.54 921.395 1977.52C943.215 1915.93 935.648 1862.46 888.042 1814.86C855.844 1782.65 843.877 1741.7 849.295 1696.2C852.632 1668.23 854.77 1639.94 860.645 1612.49C881.779 1513.7 868.748 1421.71 808.341 1338.99C755.763 1266.98 700.053 1197.26 649.795 1123.42C612.499 1068.56 560.196 1051.7 495.628 1071.54C410.257 1097.77 323.355 1110.88 235.755 1084.03C184.377 1068.28 135.308 1044.76 83.736 1030.07C46.4171 1019.46 18.1736 1022.69 0.0913086 1038.15V1209.1C24.6429 1275.39 63.7221 1334.16 109.522 1389.51C162.969 1454.1 214.93 1520 222.782 1607.82C228.348 1669.97 257.301 1719.57 297.877 1764.49C320.931 1790.02 345.323 1814.66 362.342 1845.02C382.059 1880.17 376.058 1905.95 343.071 1928.96C314.496 1948.84 282.835 1963.5 249.345 1970.59C163.552 1988.72 87.6794 2025.13 21.8883 2083.08C15.2146 2089.09 7.93686 2094.4 0.171319 2098.91V2164.96C43.0224 2156.01 84.8219 2142.91 126.621 2129.83C256.923 2089.04 388.014 2053.05 526.523 2058.11C597.892 2060.73 667.981 2071.45 726.548 2115.08C787.927 2160.8 838.07 2215.1 862.382 2286.03H929.259C911.279 2257.15 886.854 2232.59 862.965 2208.22C808.878 2153.16 774.954 2092.4 780.497 2011.86C783.538 1967.39 739.692 1941.99 694.647 1958.63C678.313 1964.67 662.997 1973.85 647.875 1982.72C612.351 2003.59 575.112 2011.29 535.37 1997.78C490.21 1982.43 447.153 1987.17 404.576 2007.45C358.01 2029.63 308.233 2038.99 256.981 2041.24C252.123 2041.46 244.956 2042.74 243.653 2037.33C242.396 2032.12 249.677 2030.69 253.689 2029.67C324.726 2011.79 388.906 1978.54 452.571 1943.4C485.215 1925.36 521.917 1924.83 558.07 1929.61C604.807 1935.78 646.835 1923.99 687.343 1901.54C718.364 1884.4 749.716 1866.53 787.687 1871.91C846.643 1880.26 875.332 1923.1 860.153 1980.5C853.981 2003.9 846.7 2026.95 844.151 2051.27C839.442 2096.01 853.444 2132.66 887.768 2161.95C921.086 2190.4 956.131 2217.13 982.305 2253.04C989.977 2263.46 996.792 2274.48 1002.69 2286H1056.33C1037.89 2262.88 1019.18 2239.96 1003.75 2214.54C960.646 2143.75 958.554 2074.84 1010.35 2007.27C1020.82 1993.55 1030.79 1979.55 1040.7 1965.47C1081.98 1906.82 1081.99 1876.17 1038.28 1819.84C1008.94 1782.03 982.271 1742.97 975.482 1694.5C970.441 1658.88 967.138 1622.93 964.955 1587.06C959.137 1491.69 946.335 1398.53 890.191 1317.11C884.476 1308.87 872.269 1299.43 879.47 1289.68C887.151 1279.3 900.421 1288.12 911.199 1290.02C912.33 1290.36 913.422 1290.81 914.457 1291.37C1009.47 1331.15 1078.16 1395.01 1104.03 1498.26C1117.96 1553.81 1118.89 1613.12 1147.58 1664.37C1213.4 1782.1 1318.79 1858.59 1429.09 1929.43C1436.35 1934.09 1446.58 1938.28 1453.92 1929.9C1460.87 1921.89 1454.7 1913.11 1450.32 1906.12ZM600.075 1863.02C475.728 1875.71 378.493 1811.38 341.3 1683.18C313.239 1586.48 266.045 1503.19 202.082 1427.07C169.381 1388.14 139.046 1346.53 132.656 1293.62C122.301 1207.61 163.357 1159 255.277 1145.65C299.203 1139.26 343.288 1136.69 404.073 1136.24C435.06 1135.72 482.437 1137.6 528.752 1148.95C605.276 1167.7 655.145 1219.75 681.308 1289.69C723.599 1402.61 757.649 1518.67 781.126 1637.08C807.324 1769.2 711.289 1851.66 600.075 1863.02Z" fill="white"/>
<path d="M2286 1348.01C2186.56 1471.74 2058.15 1554.46 1899.36 1592.31C1793.98 1617.46 1755.87 1599.62 1700.33 1506.69C1668.73 1453.84 1632.71 1404.2 1594.75 1355.82C1543.53 1290.55 1491.58 1225.51 1461.02 1147.17C1407.47 1010.01 1413.94 867.571 1427.47 725.199C1436.36 631.599 1447.23 538.65 1438.77 444.021C1426.03 301.363 1494.45 177.199 1617.16 126.976C1751.25 72.1119 1885.28 67.8142 2011.89 151.802C2078.18 195.807 2149.82 213.672 2229.34 203.683C2248.11 201.317 2267.06 200.254 2286.02 199.671V0H2214.11C2221.14 3.11143 2227.87 6.89718 2234.18 11.3043C2280.83 44.177 2282.18 89.7369 2237.06 124.267C2210.77 144.407 2180.51 153.745 2143.33 153.814C2106.15 152.71 2070.1 140.82 2039.56 119.592C1998.6 91.1657 1997.96 53.4924 2036.83 22.2999C2048.61 12.995 2061.71 5.48075 2075.69 0L1903.25 0C1857.02 26.6548 1806.72 45.5257 1753.86 59.5389C1681.55 78.6956 1608.03 93.726 1541.91 131.902C1426.33 198.573 1372.42 295.031 1391.77 420.395C1406.15 513.539 1398.35 603.275 1374.54 693.23C1359.03 752.094 1341.68 811.393 1350.93 873.469C1358.25 922.504 1375.76 969.996 1375.45 1020.16C1374.96 1096.91 1400.6 1164.61 1442.02 1227.98C1477.45 1282.11 1506.31 1339.62 1524.32 1402.12C1533.61 1434.35 1540.58 1467.27 1555.99 1497.56C1617.71 1618.59 1773.22 1685.1 1915.81 1642.21C2060.07 1598.77 2186.98 1527.84 2285.99 1417.86L2286 1348.01Z" fill="white"/>
<path d="M960.68 1110.32C994.97 1125.49 1029.99 1138.9 1064.21 1154.11C1183.88 1207.47 1240.13 1305.48 1251.16 1430.91C1261.03 1543.03 1311.84 1622.93 1415.75 1668.85C1449.81 1683.88 1481.5 1703.79 1509.81 1727.95C1595.54 1801.11 1592.11 1845.08 1558.35 1916.91C1519.04 2000.49 1518.76 2082.89 1564.76 2165.25C1586.14 2203.53 1603.86 2243.42 1612.65 2286H1680.08C1673.76 2243.97 1657.22 2204.73 1634.36 2167.13C1615.05 2135.44 1595.78 2103.71 1583.8 2068.19C1564.7 2011.54 1579.68 1960.11 1605.14 1909.13C1637.05 1845.19 1630.28 1801.36 1582.7 1747.97C1548.67 1709.83 1506.57 1681.67 1463.43 1655.44C1387.99 1609.62 1340.27 1544.79 1327.22 1457.42C1309.39 1338.02 1277.85 1226.38 1184.34 1140.52C1139.57 1099.57 1108.44 1046.15 1072.48 997.302C1052.5 970.144 1027.45 948.473 990.352 956.051C955.068 963.264 926.344 982.889 904.399 1011.49C888.9 1031.69 890.751 1052.21 906.845 1071.53C921.441 1089.04 940.197 1101.26 960.68 1110.32ZM967.389 1026.72C975.047 1014.33 987.746 1014.76 999.931 1018.18C1033.34 1027.56 1058.78 1048.01 1078.1 1076.41C1082.15 1082.36 1084.96 1089.11 1080.39 1096.05C1075.99 1102.72 1068.86 1103.44 1057.35 1103.06C1026.73 1099.15 995.461 1087.58 972.864 1059.16C965.412 1049.74 960.188 1038.38 967.389 1026.72Z" fill="white"/>
<path d="M1771.81 2286C1782.34 2218.13 1808.99 2155.7 1848.47 2097.32C1890.18 2035.69 1941.49 1982.4 1992.73 1928.93C2036.93 1882.82 2081.51 1836.57 2097.14 1771.57C2110.86 1714.68 2077.97 1678.54 2021.35 1691.07C1931.92 1710.84 1867.26 1763.72 1843.29 1852.73C1817 1950.39 1781.37 2044.31 1746.48 2138.8C1728.82 2186.62 1716.04 2235.62 1710.74 2286H1771.81Z" fill="white"/>
<path d="M1151.7 2275.88C1155.82 2279.31 1159.98 2282.63 1164.13 2286H1287.89C1247.77 2262.65 1213.29 2232.7 1187.61 2193.54C1176.46 2176.52 1182.81 2162.17 1203.61 2161.82C1207.56 2163.34 1215.73 2165.25 1222.51 2169.33C1262.31 2193.66 1293.37 2226.58 1315.81 2267.44C1318.99 2273.15 1322.37 2279.84 1319.4 2286H1425.2C1406.62 2210.88 1368.27 2144.85 1315.84 2085.8C1272.18 2036.65 1215.92 2015.3 1150.11 2018.59C1063.74 2022.93 1024.72 2083.92 1058.06 2163.55C1077.69 2210.56 1113.28 2244.35 1151.7 2275.88Z" fill="white"/>
<path d="M779.24 2247.38C770.931 2237.61 761.672 2228.05 751.191 2220.8C602.841 2118.3 445.016 2086.58 274.914 2161.37C186.469 2200.27 97.155 2234.19 0 2241.54V2286H92.3315C136.68 2273.62 179.497 2255.7 220.988 2233.22C331.23 2173.45 436.386 2180.06 540.056 2250.09C557.955 2262.19 575.878 2274.39 594.154 2286H799.734C797.665 2274.01 790.887 2261.05 779.24 2247.38Z" fill="white"/>
<path d="M990.238 1441.83C1019.96 1506.98 1042.4 1574.09 1034.7 1646.9C1028.45 1705.95 1047.07 1754.35 1088.34 1795.68C1109.52 1816.92 1123.53 1842 1126.06 1873.06C1128.2 1899.22 1143.09 1918.63 1163.67 1934.1C1193.09 1956.22 1227.22 1967.7 1262.28 1975.79C1341.44 1994.08 1397.05 2037.88 1420.02 2117.72C1436.48 2174.99 1463.9 2226 1501.64 2272.02C1505.35 2276.59 1508.89 2281.17 1512.17 2286H1557.99C1552.62 2276.31 1546.56 2266.92 1540.46 2257.63C1512.41 2214.93 1492.05 2169.2 1482.35 2119.11C1468.85 2049.39 1431.44 1997.95 1369.41 1963.25C1318.77 1934.92 1271.28 1901.78 1228.51 1862.31C1150.92 1790.7 1094.48 1707.46 1085.83 1598.69C1082.51 1557.04 1084.81 1514.73 1070.71 1474.47C1057.94 1438.02 1038.84 1406.19 1001.4 1390.27C985.757 1383.6 976.122 1389.96 979.036 1407.51C981.002 1419.26 985.266 1430.92 990.238 1441.83Z" fill="white"/>
<path d="M1905.61 2286C1910.27 2222.84 1930.55 2163.48 1963.99 2107.87C2018.55 2017.18 2098.87 1950.07 2176.87 1880.98C2213.01 1848.97 2252.83 1820.71 2286 1785.57V1644.13C2263.14 1635.44 2236.85 1640.02 2212.71 1657.91C2181.85 1680.77 2166.59 1713.99 2155.84 1748.92C2123.98 1852.32 2064.16 1936.01 1982.1 2005.52C1926.17 2052.89 1871.89 2102.15 1843.22 2172.65C1828.66 2208.7 1820.87 2247.12 1820.25 2286H1905.61Z" fill="white"/>
<path d="M2080.88 2276.07C2086.16 2279.7 2091.46 2282.99 2096.79 2286H2254.24C2265.26 2280.19 2275.87 2273.63 2286 2266.37V2202.05C2261.82 2218 2233.77 2227.53 2201.85 2230.62C2172.56 2233.41 2149.72 2220.21 2138.62 2193.51C2121.26 2151.74 2119.77 2108.67 2152.18 2073.56C2192.29 2030.13 2236.76 1991.86 2286 1959.87V1858.6C2256.52 1887.17 2225.71 1914.36 2195.61 1942.3C2145.98 1988.35 2091.93 2030.06 2050.89 2084.69C2000.49 2151.75 2013.02 2229.28 2080.88 2276.07Z" fill="white"/>
<path d="M500.12 2286C420.921 2221.99 342.637 2217.71 254.98 2273.05C248.122 2277.4 241.215 2281.72 234.258 2286H500.12Z" fill="white"/>
<path d="M2286 2007.93C2233 2036.27 2191.2 2076.97 2164.84 2134.05C2157.5 2149.9 2154.3 2167.59 2167.94 2182.55C2183.47 2199.59 2204.17 2202.71 2225.2 2198.31C2249.98 2193.13 2269.91 2183.11 2286.06 2169.39L2286 2007.93Z" fill="white"/>
<path d="M2286 1475.06C2271.38 1487.19 2256.02 1498.39 2240.02 1508.61C2204.17 1531.68 2167.08 1553.35 2139.62 1587.04C2133.25 1594.86 2123.16 1604.69 2131.52 1614.81C2139.71 1624.72 2151.78 1617.72 2160.45 1612.52C2189.3 1595.38 2217.15 1576.46 2246.05 1559.37C2259.06 1551.69 2272.34 1545.74 2286.06 1542.44L2286 1475.06Z" fill="white"/>
<path d="M1378.97 0C1263.31 63.5165 1194.84 156.591 1182.26 291.694C1174.76 372.344 1146.94 448.959 1079.93 501.514C972.373 585.856 847.775 616.809 713.026 604.087C647.772 597.926 589.891 540.959 579.512 481.98C569.923 427.459 593.571 388.106 664.494 351.461C728.685 318.314 781.138 272.103 828.732 218.873C864.165 179.177 899.838 139.092 948.69 114.86C1004.94 86.868 1087.88 127.502 1088.51 187.075C1089.62 292.608 1049.53 381.762 964.372 446.604C916.743 482.872 862.348 469.842 809.335 460.149C768.096 452.628 726.605 443.85 685.366 459.086C658.791 468.904 654.185 487.329 672.095 509.309C696.316 539.027 728.868 554.766 766.29 555.098C991.724 557.132 1126.75 398.061 1133.51 213.101C1136.94 119.844 1175.54 50.1663 1255.75 4.01193C1258.1 2.65176 1260.48 1.33731 1262.85 0H948.781C942.472 9.80694 935.946 19.431 927.945 27.7863C872.806 85.4964 826.903 150.43 778.109 213.147C740.058 262.044 699.31 311.045 635.599 324.269C503.149 351.701 386.025 320.223 289.636 222.016C249.105 180.685 200.566 153.775 144.018 141.286C95.0633 130.531 45.0342 122.758 0 101.727V161.163C59.5046 171.187 118.095 185.052 171.256 214.884C282.458 277.212 376.801 363.977 481.203 436.352C510.327 456.537 521.905 491.079 524.637 526.877C525.22 534.341 524.717 542.502 517.436 546.811C509.732 551.383 502.154 547.657 495.502 543.291C477.1 531.209 464.71 513.493 451.794 496.222C338.237 344.397 201.865 235.664 0 246.739V306.233C32.3225 303.749 64.7616 303.134 97.155 304.392C137.069 306.175 177.371 308.267 212.929 329.447C268.159 362.331 285.35 417.366 294.437 475.877C312.553 592.92 365.44 653.51 472.059 674.519C534.25 686.772 597.858 681.982 660.711 686.863C668.918 687.354 677.159 687.64 685.343 688.372C912.217 708.82 1078.72 613.54 1191.57 420.361C1221.56 369.029 1241.15 311.776 1268.24 258.592C1320.94 155.174 1388.94 65.6654 1482.15 0H1378.97ZM1055.33 28.2664C1071.71 9.90981 1093.17 2.96037 1117.44 1.97739C1130.88 2.8575 1146.36 2.52603 1150.96 18.9281C1155.7 35.8902 1141.3 42.9311 1129.65 49.7091C1111.36 60.2818 1091.55 65.7111 1070.21 64.3623C1061.21 63.8137 1053.3 60.9333 1049.45 51.7893C1045.59 42.6453 1049.48 34.8272 1055.33 28.2664Z" fill="white"/>
<path d="M1767.08 1689.35C1648.21 1662.9 1566.39 1591.06 1506.77 1488.88C1469.05 1424.17 1441.11 1354.98 1414.19 1285.43C1380.77 1199.17 1344.14 1115.12 1268.66 1055.45C1224.28 1020.37 1188.65 977.631 1157.44 930.539C1112.31 862.428 1047.79 837.83 968.269 855.547C924.447 865.308 884.03 886.842 838.779 891.814C774.942 898.821 717.415 879.596 662.094 850.838C606.773 822.08 550.926 812.879 490.998 839.065C458.88 853.124 423.561 855.067 388.3 852.964C316.074 848.609 255.335 815.576 196.276 777.651C140.692 741.933 83.5074 709.986 14.9045 707.243C9.96678 707.563 4.93758 707.608 -0.0458984 707.986V750.117C11.2727 757.321 23.434 763.106 36.1643 767.342C121.386 796.054 204.631 829.647 284.538 870.84C356.422 907.885 429.699 915.212 508.463 895.415C598.36 872.818 676.621 895.506 737.063 969.058C756.266 992.444 773.136 1017.56 785.972 1044.78C823.497 1124.4 882.476 1183.34 959.983 1222.8C1075.43 1281.57 1148.74 1373.57 1183.28 1497.12C1214.07 1607.31 1270.51 1696.53 1373.18 1755.09C1416.18 1779.62 1452.04 1816.5 1491.59 1847.34C1498.1 1852.41 1506.95 1858.9 1514.87 1851.83C1522.14 1845.34 1516.88 1836.33 1513.61 1828.97C1510.41 1821.84 1506.64 1814.99 1502.34 1808.47C1473.61 1764.61 1434.27 1732.17 1390.08 1705.12C1360.36 1686.93 1331.08 1668.35 1305.02 1644.86C1244.68 1590.46 1223.36 1517.98 1209.44 1441.93C1187.39 1321.42 1125.82 1234.43 1005.07 1194.81C959.423 1179.83 915.623 1159.21 878.624 1127.24C844.025 1097.34 818.628 1061.14 823.348 1013.54C830.149 944.964 881.824 915.394 938.563 894.466C992.364 874.612 1031.44 887.002 1069.92 933.157C1111.5 983.026 1147.11 1038.31 1198.7 1079.09C1296.45 1156.43 1356.72 1256.8 1376.19 1378.96C1393.83 1489.57 1452.24 1567.04 1548.35 1620.36C1583.18 1639.68 1615.79 1662.89 1646.75 1688.33C1725.24 1752.92 1736.78 1824.98 1681.97 1910.47C1672.27 1925.61 1661.57 1940.19 1652.64 1955.76C1636.09 1984.65 1623.56 2014.9 1629.93 2049.39C1632.06 2060.9 1636.79 2071.66 1649.58 2074.68C1662.54 2077.75 1671.03 2069.4 1678.31 2060.31C1688.67 2047.38 1695.78 2032.52 1701.3 2017.02C1729.34 1938.38 1766.17 1864.2 1809.75 1792.92C1847.74 1730.84 1837.83 1705.08 1767.08 1689.35Z" fill="white"/>
<path d="M1560.39 0C1478.16 40.3593 1415.77 107.305 1367.09 192.904C1316.79 281.361 1280 376.321 1233.23 466.504C1137.46 651.144 990.592 747.899 778.737 736.778C702.442 732.766 625.987 725.976 549.783 727.76C448.879 730.126 355.839 708.111 266.228 662.609C181.977 619.86 93.8174 588.314 0 574.666V638.834C10.1613 640.274 20.2883 641.943 30.3238 643.966C118.255 661.728 197.202 703.025 277.406 740.47C357.885 778.04 441.301 797.917 530.215 785.241C588.508 776.92 647.647 770.062 703.757 789.15C804.272 823.326 901.621 818.868 1002.98 789.882C1100.06 762.141 1163.85 792.453 1219.42 877.39C1236.28 903.164 1250.67 930.573 1266.01 957.331C1280.87 983.151 1295.09 1009.35 1316.87 1030.2C1323.32 1036.36 1330.75 1043.76 1340.54 1039.52C1350.96 1034.95 1350.17 1024.08 1349.77 1014.86C1348.63 988.832 1342.37 963.583 1332.62 939.729C1293.37 843.808 1281.68 748.356 1326.81 650.173C1355.69 587.308 1365.32 520.476 1357.92 450.799C1349.13 368.137 1356.12 287.579 1399.4 213.421C1456.55 115.466 1547.99 68.5457 1652.7 40.3708C1702.99 26.8376 1755.08 19.9682 1803.57 0.03429L1560.39 0ZM1262.58 723.245C1252.29 739.132 1239.5 753.637 1217.84 748.391C1196.18 743.144 1188.7 725.336 1187.73 705.631C1185.14 653.407 1203.48 607.619 1234.45 566.539C1242.93 555.292 1254.11 546.148 1269.6 550.949C1283.95 555.395 1289.14 568.174 1291.8 581.593C1293.6 590.737 1294.08 600.189 1294.77 606.739C1292.87 650.024 1284.83 688.76 1262.58 723.245Z" fill="white"/>
<path d="M756.449 0C715.141 53.5838 664.883 99.3038 617.86 147.676C572.357 194.539 525.849 200.608 471.396 166.021C381.854 109.145 284.333 75.8952 181.463 54.0068C131.696 43.3311 83.8048 27.8206 42.9425 0H0V30.9753C32.8613 54.0753 70.866 68.2828 111.763 74.5236C228.211 92.263 329.538 135.64 415.652 218.004C458.743 259.221 513.79 283.304 575.581 286.161C626.661 287.647 665.786 266.125 689.035 221.171C713.404 174.067 746.539 135.205 785.504 99.8182C818.079 70.2374 847.958 38.0619 869.823 0H756.449Z" fill="white"/>
<path d="M870.84 420.075C844.151 418.669 805.689 416.555 769.685 401.787C745.567 391.935 741.201 374.973 760.175 357.565C822.388 300.495 881.036 239.184 951.467 191.601C969.641 179.325 988.969 169.05 1011.27 165.986C1036.9 162.466 1061.36 180.217 1060.85 205.351C1059.71 262.501 1047.14 317.045 1013.61 364.548C981.745 409.777 934.574 421.481 870.84 420.075Z" fill="white"/>
<path d="M127.067 1501.33C87.2223 1431.61 39.685 1366.11 0 1296.26V1391.13C17.2364 1415.5 33.8899 1440.28 50.7606 1464.9C76.0095 1501.74 100.275 1539.29 110.62 1583.57C125.73 1648.25 93.7946 1698.1 57.4243 1745.88C34.7015 1775.75 15.2591 1807.12 0 1840.55V2001.05C9.3856 1987.03 16.5527 1971.65 21.2484 1955.44C42.5082 1882.58 74.7522 1815.31 119.363 1754.28C180.068 1671.25 176.959 1588.64 127.067 1501.33Z" fill="white"/>
<path d="M248.374 539.702C242.145 511.504 233.035 483.775 229.091 455.303C220.119 390.472 188.698 361.737 111.648 362.228C75.6895 365.394 36.0045 374.55 0 396.221V507C6.91255 508.766 13.9458 510.019 21.0426 510.75C82.9475 517.093 143.344 527.895 196.676 563.145C202.391 566.928 209.5 569.031 216.267 570.677C241.104 576.723 253.849 564.505 248.374 539.702Z" fill="white"/>
<path d="M150.362 0C177.794 12.3558 206.792 21.5113 236.521 29.4551C297.843 45.8457 352.776 37.0218 402.108 0H150.362Z" fill="white"/>
<path d="M299.672 1034.42C223.205 962.223 142.726 895.472 48.6232 846.723C31.8326 838.059 15.2933 828.95 0 818.388V874.281C69.4258 935.923 142.749 992.456 224.897 1037.34C245.836 1048.77 268.434 1056.57 290.276 1058.8C298.769 1058.66 306.438 1060.03 309.056 1052.98C312.176 1044.59 304.827 1039.32 299.672 1034.42Z" fill="white"/>
<path d="M0 1710.49C37.8104 1663.01 46.863 1608.88 30.9296 1550.19C24.1516 1525.24 12.8359 1502.6 0 1480.71V1710.49Z" fill="white"/>
<path d="M505.08 0C495.582 7.19626 486.836 15.3338 478.974 24.2888C464.058 41.2737 451.542 61.7906 464.446 85.1306C478.242 110.117 502.726 114.849 528.614 110.38C541.256 107.993 553.395 103.458 564.505 96.9721C605.847 73.232 638.274 40.1765 662.94 0H505.08Z" fill="white"/>
<path d="M171.21 1929.48C155.494 1929.82 139.743 1929.48 124.873 1923.98C106.585 1917.12 100.218 1904.71 108.734 1886.08C139.252 1819.22 228.006 1799.21 283.613 1846.85C297.123 1858.44 308.416 1872.25 303.558 1891.42C298.986 1909.71 282.332 1913.88 266.433 1917.3C235.012 1924.01 203.374 1928.89 171.21 1929.48Z" fill="white"/>
<path d="M1896.24 891.849C1922 891.769 1934.22 903.861 1928.49 924.561C1910.27 990.295 1874.52 1043.95 1814.3 1078.47C1789.15 1092.88 1763.59 1093.45 1740.96 1071.61C1719.24 1050.66 1713.53 1022.46 1726.49 994.147C1747.73 947.764 1790.04 927.076 1833.55 908.422C1854.37 899.541 1876.12 893.049 1896.24 891.849Z" fill="white"/>
<path d="M1839.8 468.527C1781.99 471.545 1750.7 456.766 1739.04 429.905C1728.48 405.559 1736.49 373.452 1758.59 351.427C1773.88 336.191 1792.64 326.692 1813.7 325.275C1886.92 320.349 1952.72 345.46 2015.5 379.487C2033.43 389.203 2030.08 405.571 2008.51 416.303C1949.96 445.427 1888.43 464.892 1839.8 468.527Z" fill="white"/>
<path d="M418.132 1183.29C528.718 1183.47 594.657 1225.98 628.513 1331.33C661.283 1433.28 682.154 1538.73 684.52 1646.4C685.663 1696.26 667.146 1740.35 624.718 1770.27C583.57 1799.24 538.296 1807.61 491.616 1785.97C442.833 1763.36 430.1 1718.53 426.465 1669.57C423.927 1635.63 422.842 1601.45 417.824 1567.84C408.84 1507.81 375.293 1464.41 322.509 1434.67C282.321 1412.04 242.042 1389.17 211.455 1353.31C167.427 1301.6 176.948 1252.53 237.07 1221.32C280.092 1198.94 355.199 1183.19 418.132 1183.29ZM403.731 1269.02C372.618 1269.94 351.461 1273.79 331.722 1283.1C317.16 1289.96 301.581 1297.81 300.712 1316.51C299.786 1336.44 314.245 1347.17 329.836 1355.6C371.315 1378.01 448.148 1367.97 482.666 1335.95C498.177 1321.57 497.114 1307.12 481.455 1294.13C456.251 1273.2 425.711 1269.46 403.731 1269.04V1269.02Z" fill="white"/>
<path d="M2133.28 115.843C2100.06 115.843 2073.73 110.905 2051.06 94.389C2027.56 77.244 2029.48 53.904 2056.29 43.114C2105.33 23.3744 2154.13 26.4262 2201.22 50.3949C2211.72 55.7328 2221.65 63.5166 2220.65 77.2897C2219.73 90.8457 2209.01 96.6522 2198.19 101.796C2175.87 112.437 2152.02 115.569 2133.28 115.843Z" fill="white"/>
</g>
<defs>
<clipPath id="clip0_57_5802">
<rect width="2286" height="2286" fill="white"/>
</clipPath>
</defs>
</svg>
